<svg viewBox="0 0 18 15" fill="none" xmlns="http://www.w3.org/2000/svg">
  <path d="M5.66079 14.6174C12.4536 14.6174 16.1683 8.99423 16.1683 4.11804C16.1683 3.95833 16.165 3.79933 16.1579 3.64106C16.8789 3.12018 17.5057 2.47018 18 1.73022C17.3383 2.02412 16.6262 2.22196 15.8792 2.31117C16.6417 1.85433 17.227 1.13165 17.5032 0.270149C16.7897 0.69282 15.9995 1.00002 15.1582 1.16588C14.4842 0.448619 13.5248 0 12.4625 0C10.4231 0 8.76927 1.65258 8.76927 3.68961C8.76927 3.97918 8.80167 4.26085 8.86503 4.53102C5.79571 4.3767 3.07406 2.90832 1.25259 0.675551C0.935428 1.22088 0.752549 1.85434 0.752549 2.53026C0.752549 3.8105 1.40453 4.94071 2.39596 5.6019C1.79007 5.58319 1.22091 5.417 0.723436 5.14037C0.722892 5.15586 0.72289 5.17095 0.72289 5.1875C0.72289 6.97461 1.99586 8.4667 3.68566 8.8048C3.37534 8.88934 3.04885 8.93466 2.71186 8.93466C2.47427 8.93466 2.24278 8.9113 2.01778 8.86812C2.48794 10.3343 3.85128 11.4013 5.46763 11.4311C4.20367 12.421 2.61142 13.0106 0.880903 13.0106C0.583183 13.0106 0.289065 12.9937 0 12.9596C1.63441 14.0063 3.57513 14.6171 5.66098 14.6171" fill="currentColor" />
</svg>