<svg width="84" height="58" viewBox="0 0 84 58" fill="none" xmlns="http://www.w3.org/2000/svg">
<path d="M36.2205 30.1697L36.9978 30.0786C37.0658 30.0963 37.256 30.3817 37.5061 30.803C37.7561 31.2243 38.0646 31.7801 38.369 32.3414C38.6735 32.9026 38.9738 33.4707 39.2048 33.911C39.4359 34.3513 39.5976 34.6653 39.6275 34.7264L39.0594 35.1885C39.0268 35.126 38.8515 34.7808 38.6028 34.3106C38.3541 33.8403 38.0293 33.2233 37.7004 32.6172C37.3715 32.0111 37.0372 31.4091 36.7681 30.9552C36.4991 30.5013 36.2911 30.1928 36.2205 30.1697Z" fill="url(#paint0_linear_186_51974)"/>
<path d="M36.2207 30.1692L36.9981 30.0781C37.066 30.0958 37.2563 30.3812 37.5063 30.8025C37.7564 31.2238 38.0649 31.7796 38.3693 32.3409C38.6737 32.9021 38.974 33.4702 39.2051 33.9105C39.4361 34.3508 39.5978 34.6648 39.6277 34.7259L39.0597 35.188C39.027 35.1255 38.8517 34.7803 38.603 34.3101C38.3543 33.8398 38.0295 33.2229 37.7007 32.6167C37.3718 32.0106 37.0375 31.4086 36.7684 30.9547C36.4993 30.5008 36.2927 30.1923 36.2248 30.1733" fill="url(#paint1_linear_186_51974)"/>
<path d="M39.0596 35.1891L39.6276 34.7271C39.6276 34.9132 39.6371 35.9393 39.648 37.4695C39.6589 38.9998 39.6738 41.0356 39.6874 43.2412C39.701 45.4469 39.716 47.8211 39.7268 50.0362C39.7377 52.2514 39.7445 54.2913 39.7445 55.8378L39.1846 58C39.1846 56.3298 39.1778 54.1214 39.1656 51.735C39.1533 49.3486 39.1398 46.7828 39.1248 44.3964C39.1099 42.01 39.0935 39.8179 39.0813 38.1653C39.0691 36.5128 39.0609 35.3902 39.0596 35.1891Z" fill="url(#paint2_linear_186_51974)"/>
<path d="M36.0959 16.1864L36.8828 17.1296C37.161 17.4621 37.4269 17.805 37.6805 18.1583C37.9342 18.5117 38.1752 18.8741 38.4035 19.2455C38.6319 19.6179 38.847 19.9989 39.0491 20.3885C39.2511 20.778 39.4386 21.1771 39.6117 21.5857C39.6538 21.6863 39.7068 21.8045 39.768 21.9336C39.8291 22.0628 39.9039 22.1987 39.9759 22.3346C40.0528 22.4711 40.1368 22.6035 40.2273 22.7314C40.3114 22.8514 40.4069 22.9629 40.5127 23.0643L40.014 22.5941C39.9003 22.4847 39.7974 22.3645 39.7068 22.2353C39.6087 22.0976 39.5179 21.9547 39.435 21.8073C39.3521 21.6605 39.2774 21.5124 39.2108 21.3737C39.1442 21.2351 39.0871 21.1019 39.0409 20.9973C38.8534 20.5588 38.6509 20.1284 38.4334 19.7062C38.216 19.284 37.9841 18.8723 37.7376 18.4709C37.4912 18.0686 37.2312 17.6772 36.9576 17.2967C36.6839 16.9162 36.3967 16.5456 36.0959 16.1851" fill="#BFBFBF"/>
<path d="M31.097 40.9894C21.9509 48.3974 7.46939 41.3414 7.54413 29.605C6.97199 18.0848 21.2959 10.155 30.5113 17.2204C20.3908 8.36108 4.06508 16.212 4.43337 29.654C4.5353 43.2318 21.228 50.2266 31.1025 40.9853L31.097 40.9894Z" fill="url(#paint3_radial_186_51974)"/>
<path d="M76.901 28.1955C76.9826 16.981 64.8059 9.12999 54.6419 13.8145C43.3744 18.7069 41.8387 34.4714 52.0516 41.3792C62.4439 48.6526 77.0736 40.8628 76.901 28.1955ZM74.6628 28.6439C74.5622 40.0324 61.3119 47.0163 51.8777 40.6032C42.2056 34.3164 43.5076 19.5046 54.0521 14.9261C63.6222 10.5284 75.0229 18.094 74.6628 28.6439Z" fill="url(#paint4_radial_186_51974)"/>
<path d="M75.4157 2.41372C75.3563 2.46838 75.3026 2.52894 75.2554 2.59446C75.2075 2.66006 75.167 2.7307 75.1344 2.80511C75.1003 2.8805 75.0744 2.95932 75.057 3.04022C75.039 3.12374 75.0299 3.20892 75.0298 3.29435V15.7863L77.2178 14.7331L77.2912 1.24361C77.2912 1.15226 77.3007 1.06117 77.3197 0.971812C77.3389 0.884582 77.3667 0.799459 77.4026 0.717678C77.4401 0.637605 77.4856 0.56156 77.5385 0.490724C77.5896 0.419685 77.6484 0.35451 77.7138 0.296387L75.4157 2.41372Z" fill="url(#paint5_linear_186_51974)"/>
<path d="M61.0659 12.0703C60.8892 12.0703 60.7126 12.0703 60.5345 12.0785C56.2715 12.2135 52.2326 14.0198 49.29 17.1073C46.3474 20.1947 44.7371 24.3157 44.8069 28.5802C44.8766 32.8448 46.6209 36.9109 49.6629 39.9004C52.705 42.89 56.8007 44.5632 61.0659 44.5587C61.2426 44.5587 61.4192 44.5587 61.5973 44.5505C65.8603 44.4155 69.8991 42.6092 72.8418 39.5218C75.7844 36.4343 77.3947 32.3134 77.3249 28.0488C77.2552 23.7842 75.5109 19.7181 72.4689 16.7286C69.4268 13.739 65.331 12.0659 61.0659 12.0703ZM76.8942 28.8323C76.6292 37.1222 69.8763 43.8778 61.5837 44.1415C59.4179 44.2124 57.2607 43.838 55.2454 43.0417C53.2301 42.2453 51.3997 41.0438 49.8675 39.5116C48.3352 37.9793 47.1338 36.1489 46.3374 34.1337C45.541 32.1184 45.1667 29.9611 45.2376 27.7954C45.5026 19.5054 52.2555 12.7512 60.5481 12.4862C62.7139 12.4153 64.8711 12.7896 66.8864 13.586C68.9017 14.3824 70.7321 15.5839 72.2643 17.1161C73.7965 18.6483 74.998 20.4787 75.7944 22.494C76.5908 24.5093 76.9651 26.6665 76.8942 28.8323Z" fill="url(#paint6_radial_186_51974)"/>
<path d="M77.2313 3.3977V14.3839C77.2313 14.4982 77.1966 14.6099 77.1317 14.7041C77.0668 14.7982 76.9748 14.8704 76.8679 14.9111C76.7611 14.9518 76.6444 14.959 76.5333 14.9319C76.4222 14.9047 76.322 14.8444 76.246 14.759C74.3395 12.6188 72.0012 10.9068 69.3852 9.73555C66.7692 8.56435 63.9348 7.96057 61.0686 7.96395C52.1794 7.96395 44.7375 13.2056 42.0086 20.9764C41.7952 21.5839 41.2122 22.8573 40.568 22.8709C39.9076 22.8573 39.3042 21.6097 39.0459 21.0009C35.9855 13.8131 28.8045 9.00495 20.3623 9.00495C17.6478 9.00381 14.9604 9.54569 12.4584 10.5987C9.95639 11.6517 7.69029 13.1945 5.79348 15.1364C3.89666 17.0783 2.40746 19.38 1.4135 21.9061C0.419546 24.4321 -0.0590714 27.1315 0.00581603 29.8453C0.265386 40.6426 9.07038 49.4476 19.8677 49.7031C24.8009 49.8199 29.9066 47.776 33.5066 44.9466C33.6815 44.8017 33.8876 44.6994 34.1087 44.6476C35.0872 44.4437 35.0301 45.6451 35.1021 46.5502C35.1089 46.629 35.1198 54.2761 35.1198 57.9903C35.1198 57.9971 39.1737 57.9903 39.1737 57.9903C39.1777 57.9903 39.1815 57.9887 39.1843 57.9859C39.1871 57.9831 39.1886 57.9793 39.1886 57.9753V57.1966C39.1886 50.7468 39.0623 35.1875 39.0623 35.1875C39.0623 35.1875 36.51 30.2503 36.2219 30.1728C36.2219 30.1728 36.2518 31.7058 36.2301 31.771C36.1581 31.9776 35.6675 33.6994 35.4391 34.2417C35.3943 34.3463 35.3522 34.451 35.3155 34.5583C34.2016 37.7579 32.0912 40.5161 29.2942 42.4279C26.4972 44.3397 23.1609 45.3044 19.7753 45.1803C11.4051 44.8786 4.65361 37.9776 4.52451 29.602C4.49188 27.5019 4.87737 25.4162 5.65852 23.4664C6.43967 21.5167 7.60089 19.7418 9.07456 18.2451C10.5482 16.7484 12.3049 15.5598 14.2423 14.7485C16.1798 13.9373 18.2592 13.5195 20.3596 13.5196C20.5431 13.5196 20.7252 13.5196 20.9032 13.5291C26.3882 13.7153 31.3363 16.8845 34.0176 21.6722L40.4946 32.8881L43.1366 37.9531C43.1841 38.0414 43.2344 38.1271 43.2833 38.2154L43.5279 38.6516C45.3816 41.7963 48.0472 44.3841 51.2454 46.1437C54.4435 47.9034 58.0563 48.7699 61.7046 48.6526C72.7234 48.3155 81.4021 39.1015 81.4211 28.0772C81.4211 27.3692 81.4211 26.6829 81.4211 25.9762V0.485352C81.2852 0.585918 79.3826 1.98026 78.3511 2.06995C77.412 2.1447 77.2557 3.15036 77.2313 3.3977ZM76.8942 28.8301C76.6292 37.12 69.8763 43.8757 61.5837 44.1393C59.4182 44.2102 57.2611 43.8359 55.2461 43.0397C53.231 42.2435 51.4007 41.0423 49.8685 39.5103C48.3363 37.9784 47.1348 36.1483 46.3382 34.1334C45.5417 32.1184 45.1671 29.9614 45.2376 27.7959C45.5026 19.506 52.2555 12.7517 60.5481 12.4867C62.7139 12.4158 64.8711 12.7902 66.8864 13.5865C68.9017 14.3829 70.7321 15.5844 72.2643 17.1166C73.7966 18.6489 74.998 20.4793 75.7944 22.4945C76.5908 24.5098 76.9651 26.6671 76.8942 28.8328V28.8301Z" fill="url(#paint7_radial_186_51974)"/>
<path d="M78.5266 7.13828e-07C78.3566 -0.000177873 78.1882 0.0331548 78.0311 0.098093C77.8739 0.163031 77.7311 0.258301 77.6109 0.378457C77.4906 0.498613 77.3952 0.641298 77.3301 0.798354C77.265 0.95541 77.2314 1.12376 77.2314 1.29377V3.55923C77.2559 3.30918 77.4122 2.30351 78.3567 2.22877C79.395 2.14723 81.2922 0.744735 81.4267 0.644169V7.13828e-07H78.5266Z" fill="url(#paint8_radial_186_51974)"/>
<path d="M78.5266 7.13828e-07C78.3566 -0.000177873 78.1882 0.0331548 78.0311 0.098093C77.8739 0.163031 77.7311 0.258301 77.6109 0.378457C77.4906 0.498613 77.3952 0.641298 77.3301 0.798354C77.265 0.95541 77.2314 1.12376 77.2314 1.29377V3.39751C77.2559 3.14746 78.2425 2.02356 79.1857 1.94881C80.2253 1.86591 81.1263 3.59049 81.2622 3.48993L81.4267 7.13828e-07H78.5266Z" fill="url(#paint9_radial_186_51974)" fill-opacity="0.43"/>
<path d="M78.5264 7.13828e-07C78.3564 -0.000177873 78.188 0.0331548 78.0309 0.098093C77.8737 0.163031 77.731 0.258301 77.6107 0.378457C77.4904 0.498613 77.395 0.641297 77.3299 0.798354C77.2648 0.95541 77.2313 1.12376 77.2313 1.29377V14.3864C77.2307 14.5005 77.1956 14.6118 77.1305 14.7056C77.0654 14.7993 76.9734 14.8711 76.8667 14.9114C76.7599 14.9517 76.6434 14.9588 76.5326 14.9315C76.4218 14.9043 76.3219 14.844 76.246 14.7588C74.3395 12.6186 72.0012 10.9066 69.3852 9.73537C66.7692 8.56416 63.9348 7.96038 61.0686 7.96377C52.1794 7.96377 44.7375 13.2054 42.0086 20.9762C41.7952 21.5837 41.2122 22.8571 40.568 22.8707C39.9076 22.8571 39.3042 21.6095 39.0459 21.0007C35.9855 13.8129 28.8045 9.00477 20.3623 9.00477C17.6478 9.00363 14.9604 9.54551 12.4584 10.5985C9.95639 11.6515 7.69029 13.1944 5.79348 15.1363C3.89666 17.0782 2.40746 19.3799 1.4135 21.9059C0.419546 24.432 -0.0590714 27.1313 0.00581603 29.8451C0.265386 40.6424 9.07038 49.4474 19.8677 49.7029C24.8009 49.8198 29.9066 47.7758 33.5066 44.9464C33.6815 44.8015 33.8876 44.6992 34.1087 44.6474C35.0872 44.4435 35.0301 45.6449 35.1021 46.55C35.1089 46.6288 35.1198 54.2759 35.1198 57.9901C35.1198 57.9969 39.1737 57.9901 39.1737 57.9901C39.1777 57.9901 39.1815 57.9885 39.1843 57.9857C39.1871 57.9829 39.1886 57.9791 39.1886 57.9751V57.1964C39.1886 50.7466 39.0623 35.1874 39.0623 35.1874C39.0623 35.1874 36.51 30.2501 36.2219 30.1726C36.2219 30.1726 36.2518 31.7056 36.2301 31.7708C36.1581 31.9774 35.6675 33.6992 35.4391 34.2415C35.3943 34.3461 35.3522 34.4508 35.3155 34.5581C34.2016 37.7577 32.0912 40.5159 29.2942 42.4277C26.4972 44.3395 23.1609 45.3042 19.7753 45.1801C11.4051 44.8784 4.65361 37.9774 4.52451 29.6018C4.49188 27.5017 4.87737 25.416 5.65852 23.4662C6.43967 21.5165 7.60089 19.7416 9.07456 18.2449C10.5482 16.7482 12.3049 15.5596 14.2423 14.7483C16.1798 13.9371 18.2592 13.5193 20.3596 13.5194C20.5431 13.5194 20.7252 13.5194 20.9032 13.5289C26.3882 13.7151 31.3363 16.8843 34.0176 21.672L40.4946 32.8879L43.1366 37.9529C43.1841 38.0413 43.2344 38.1269 43.2833 38.2152L43.5279 38.6515C45.3816 41.7961 48.0472 44.3839 51.2454 46.1435C54.4435 47.9032 58.0563 48.7698 61.7046 48.6524C72.7234 48.3153 81.4021 39.1013 81.4211 28.077C81.4211 27.369 81.4211 26.6827 81.4211 25.976V7.13828e-07H78.5264ZM81.1547 25.9815C81.1547 26.3728 81.1547 26.7588 81.1547 27.1448C81.1547 27.456 81.1547 27.7672 81.1547 28.0811C81.1552 33.3373 79.1282 38.3912 75.4958 42.1903C71.8962 45.9989 66.9333 48.225 61.6951 48.3806C61.4858 48.3806 61.2752 48.3901 61.0673 48.3901C57.5729 48.3918 54.1385 47.4813 51.1041 45.7484C48.0696 44.0156 45.5401 41.5205 43.7658 38.5101L43.6407 38.2995L43.4641 37.9842L43.3744 37.8238L40.7352 32.7629L34.2527 21.5361C31.498 16.6166 26.3868 13.4433 20.9127 13.2571C20.7279 13.2571 20.5404 13.2476 20.3556 13.2476C16.1194 13.2241 12.0445 14.8703 9.0134 17.8296C5.98226 20.7889 4.23887 24.8232 4.16077 29.0586C4.08267 33.2941 5.67616 37.3899 8.59615 40.4589C11.5161 43.528 15.5275 45.3233 19.7617 45.456C19.9587 45.4641 20.1585 45.4669 20.3556 45.4669C23.7002 45.4659 26.9617 44.4246 29.6882 42.4873C32.4146 40.5501 34.471 37.8127 35.5723 34.6546C35.6036 34.5663 35.6403 34.4712 35.6892 34.3556C35.8604 33.9479 36.1662 32.93 36.3483 32.3171C36.4122 32.1011 36.4679 31.9162 36.4842 31.8632C36.5005 31.8102 36.5128 31.7803 36.5046 31.0478C37.0876 32.0304 38.0878 33.9017 38.7877 35.2607C38.7986 36.5219 38.9141 50.9939 38.9141 57.2032V57.7251H38.2074C36.4937 57.7251 35.7286 57.7251 35.3916 57.7251C35.3916 54.3819 35.3807 46.6315 35.3726 46.5323C35.3644 46.4331 35.359 46.3217 35.3522 46.2143C35.3046 45.4315 35.238 44.3606 34.3139 44.3606C34.2262 44.3612 34.1387 44.3708 34.053 44.3892C33.7908 44.4493 33.5462 44.5694 33.3381 44.7398C29.5914 47.6861 24.7057 49.4433 20.2699 49.4433C20.134 49.4433 19.9981 49.4433 19.8731 49.4433C14.597 49.3063 9.58682 47.0977 5.92647 43.2953C2.26612 39.4929 0.249843 34.4023 0.313783 29.1248C0.377723 23.8472 2.51674 18.807 6.26814 15.0944C10.0195 11.3817 15.0817 9.2952 20.3596 9.28608C24.334 9.26379 28.2292 10.3969 31.5714 12.5477C34.7798 14.6204 37.2948 17.6054 38.7932 21.1189C39.3626 22.4589 39.9578 23.1438 40.5599 23.1574C41.4922 23.1384 42.1418 21.4233 42.2627 21.0795C44.9997 13.2856 52.3805 8.24916 61.0659 8.24916C63.8931 8.25179 66.6881 8.85044 69.2683 10.006C71.8486 11.1617 74.1563 12.8483 76.0408 14.9558C76.1531 15.0831 76.3015 15.1731 76.4662 15.2139C76.631 15.2547 76.8042 15.2444 76.963 15.1844C77.1217 15.1243 77.2584 15.0174 77.3549 14.8778C77.4514 14.7381 77.503 14.5724 77.5031 14.4027V1.29377C77.5038 1.02272 77.6119 0.762984 77.8037 0.571444C77.9955 0.379904 78.2553 0.27216 78.5264 0.271802H81.1547V25.9815Z" fill="url(#paint10_radial_186_51974)"/>
<path d="M61.066 12.207C60.8906 12.207 60.7153 12.207 60.5387 12.2152C56.3117 12.3497 52.3071 14.1411 49.3896 17.2027C46.4721 20.2643 44.8756 24.3505 44.9448 28.579C45.014 32.8076 46.7434 36.8393 49.7596 39.8037C52.7758 42.7682 56.8368 44.4276 61.066 44.4236C61.2413 44.4236 61.4166 44.4236 61.5932 44.4155C65.8202 44.281 69.8248 42.4895 72.7423 39.4279C75.6599 36.3663 77.2564 32.2802 77.1871 28.0516C77.1179 23.8231 75.3885 19.7914 72.3723 16.8269C69.3561 13.8625 65.2951 12.2031 61.066 12.207ZM76.8943 28.8331C76.6293 37.123 69.8764 43.8786 61.5837 44.1423C59.418 44.2132 57.2607 43.8389 55.2455 43.0425C53.2302 42.2461 51.3998 41.0446 49.8675 39.5124C48.3353 37.9801 47.1338 36.1497 46.3374 34.1345C45.5411 32.1192 45.1667 29.9619 45.2376 27.7962C45.5026 19.5063 52.2555 12.752 60.5482 12.487C62.7139 12.4161 64.8712 12.7904 66.8865 13.5868C68.9017 14.3832 70.7321 15.5847 72.2644 17.1169C73.7966 18.6492 74.9981 20.4795 75.7945 22.4948C76.5909 24.5101 76.9652 26.6673 76.8943 28.8331Z" fill="url(#paint11_radial_186_51974)"/>
<path d="M78.5264 7.13828e-07C78.3564 -0.000177873 78.188 0.0331548 78.0309 0.098093C77.8737 0.163031 77.731 0.258301 77.6107 0.378457C77.4904 0.498613 77.395 0.641297 77.3299 0.798354C77.2648 0.95541 77.2313 1.12376 77.2313 1.29377V14.3864C77.2307 14.5005 77.1956 14.6118 77.1305 14.7056C77.0654 14.7993 76.9734 14.8711 76.8667 14.9114C76.7599 14.9517 76.6434 14.9588 76.5326 14.9315C76.4218 14.9043 76.3219 14.844 76.246 14.7588C74.3395 12.6186 72.0012 10.9066 69.3852 9.73537C66.7692 8.56416 63.9348 7.96038 61.0686 7.96377C52.1794 7.96377 44.7375 13.2054 42.0086 20.9762C41.7952 21.5837 41.2122 22.8571 40.568 22.8707C39.9076 22.8571 39.3042 21.6095 39.0459 21.0007C35.9855 13.8129 28.8045 9.00477 20.3623 9.00477C17.6478 9.00363 14.9604 9.54551 12.4584 10.5985C9.95639 11.6515 7.69029 13.1944 5.79348 15.1363C3.89666 17.0782 2.40746 19.3799 1.4135 21.9059C0.419546 24.432 -0.0590714 27.1313 0.00581603 29.8451C0.265386 40.6424 9.07038 49.4474 19.8677 49.7029C24.8009 49.8198 29.9066 47.7758 33.5066 44.9464C33.6815 44.8015 33.8876 44.6992 34.1087 44.6474C35.0872 44.4435 35.0301 45.6449 35.1021 46.55C35.1089 46.6288 35.1198 54.2759 35.1198 57.9901C35.1198 57.9969 39.1737 57.9901 39.1737 57.9901C39.1777 57.9901 39.1815 57.9885 39.1843 57.9857C39.1871 57.9829 39.1886 57.9791 39.1886 57.9751V57.1964C39.1886 50.7466 39.0623 35.1874 39.0623 35.1874C39.0623 35.1874 36.51 30.2501 36.2219 30.1726C36.2219 30.1726 36.2518 31.7056 36.2301 31.7708C36.1581 31.9774 35.6675 33.6992 35.4391 34.2415C35.3943 34.3461 35.3522 34.4508 35.3155 34.5581C34.2016 37.7577 32.0912 40.5159 29.2942 42.4277C26.4972 44.3395 23.1609 45.3042 19.7753 45.1801C11.4051 44.8784 4.65361 37.9774 4.52451 29.6018C4.49188 27.5017 4.87737 25.416 5.65852 23.4662C6.43967 21.5165 7.60089 19.7416 9.07456 18.2449C10.5482 16.7482 12.3049 15.5596 14.2423 14.7483C16.1798 13.9371 18.2592 13.5193 20.3596 13.5194C20.5431 13.5194 20.7252 13.5194 20.9032 13.5289C26.3882 13.7151 31.3363 16.8843 34.0176 21.672L40.4946 32.8879L43.1366 37.9529C43.1841 38.0413 43.2344 38.1269 43.2833 38.2152L43.5279 38.6515C45.3816 41.7961 48.0472 44.3839 51.2454 46.1435C54.4435 47.9032 58.0563 48.7698 61.7046 48.6524C72.7234 48.3153 81.4021 39.1013 81.4211 28.077C81.4211 27.369 81.4211 26.6827 81.4211 25.976V7.13828e-07H78.5264ZM81.1547 25.9815C81.1547 26.3728 81.1547 26.7588 81.1547 27.1448C81.1547 27.456 81.1547 27.7672 81.1547 28.0811C81.1552 33.3373 79.1282 38.3912 75.4958 42.1903C71.8962 45.9989 66.9333 48.225 61.6951 48.3806C61.4858 48.3806 61.2752 48.3901 61.0673 48.3901C57.5729 48.3918 54.1385 47.4813 51.1041 45.7484C48.0696 44.0156 45.5401 41.5205 43.7658 38.5101L43.6407 38.2995L43.4641 37.9842L43.3744 37.8238L40.7352 32.7629L34.2527 21.5361C31.498 16.6166 26.3868 13.4433 20.9127 13.2571C20.7279 13.2571 20.5404 13.2476 20.3556 13.2476C16.1194 13.2241 12.0445 14.8703 9.0134 17.8296C5.98226 20.7889 4.23887 24.8232 4.16077 29.0586C4.08267 33.2941 5.67616 37.3899 8.59615 40.4589C11.5161 43.528 15.5275 45.3233 19.7617 45.456C19.9587 45.4641 20.1585 45.4669 20.3556 45.4669C23.7002 45.4659 26.9617 44.4246 29.6882 42.4873C32.4146 40.5501 34.471 37.8127 35.5723 34.6546C35.6036 34.5663 35.6403 34.4712 35.6892 34.3556C35.8604 33.9479 36.1662 32.93 36.3483 32.3171C36.4122 32.1011 36.4679 31.9162 36.4842 31.8632C36.5005 31.8102 36.5128 31.7803 36.5046 31.0478C37.0876 32.0304 38.0878 33.9017 38.7877 35.2607C38.7986 36.5219 38.9141 50.9939 38.9141 57.2032V57.7251H38.2074C36.4937 57.7251 35.7286 57.7251 35.3916 57.7251C35.3916 54.3819 35.3807 46.6315 35.3726 46.5323C35.3644 46.4331 35.359 46.3217 35.3522 46.2143C35.3046 45.4315 35.238 44.3606 34.3139 44.3606C34.2262 44.3612 34.1387 44.3708 34.053 44.3892C33.7908 44.4493 33.5462 44.5694 33.3381 44.7398C29.5914 47.6861 24.7057 49.4433 20.2699 49.4433C20.134 49.4433 19.9981 49.4433 19.8731 49.4433C14.597 49.3063 9.58682 47.0977 5.92647 43.2953C2.26612 39.4929 0.249843 34.4023 0.313783 29.1248C0.377723 23.8472 2.51674 18.807 6.26814 15.0944C10.0195 11.3817 15.0817 9.2952 20.3596 9.28608C24.334 9.26379 28.2292 10.3969 31.5714 12.5477C34.7798 14.6204 37.2948 17.6054 38.7932 21.1189C39.3626 22.4589 39.9578 23.1438 40.5599 23.1574C41.4922 23.1384 42.1418 21.4233 42.2627 21.0795C44.9997 13.2856 52.3805 8.24916 61.0659 8.24916C63.8931 8.25179 66.6881 8.85044 69.2683 10.006C71.8486 11.1617 74.1563 12.8483 76.0408 14.9558C76.1531 15.0831 76.3015 15.1731 76.4662 15.2139C76.631 15.2547 76.8042 15.2444 76.963 15.1844C77.1217 15.1243 77.2584 15.0174 77.3549 14.8778C77.4514 14.7381 77.503 14.5724 77.5031 14.4027V1.29377C77.5038 1.02272 77.6119 0.762984 77.8037 0.571444C77.9955 0.379904 78.2553 0.27216 78.5264 0.271802H81.1547V25.9815Z" fill="url(#paint12_radial_186_51974)"/>
<path d="M61.066 12.207C60.8906 12.207 60.7153 12.207 60.5387 12.2152C56.3117 12.3497 52.3071 14.1411 49.3896 17.2027C46.4721 20.2643 44.8756 24.3505 44.9448 28.579C45.014 32.8076 46.7434 36.8393 49.7596 39.8037C52.7758 42.7682 56.8368 44.4276 61.066 44.4236C61.2413 44.4236 61.4166 44.4236 61.5932 44.4155C65.8202 44.281 69.8248 42.4895 72.7423 39.4279C75.6599 36.3663 77.2564 32.2802 77.1871 28.0516C77.1179 23.8231 75.3885 19.7914 72.3723 16.8269C69.3561 13.8625 65.2951 12.2031 61.066 12.207ZM76.8943 28.8331C76.6293 37.123 69.8764 43.8786 61.5837 44.1423C59.418 44.2132 57.2607 43.8389 55.2455 43.0425C53.2302 42.2461 51.3998 41.0446 49.8675 39.5124C48.3353 37.9801 47.1338 36.1497 46.3374 34.1345C45.5411 32.1192 45.1667 29.9619 45.2376 27.7962C45.5026 19.5063 52.2555 12.752 60.5482 12.487C62.7139 12.4161 64.8712 12.7904 66.8865 13.5868C68.9017 14.3832 70.7321 15.5847 72.2644 17.1169C73.7966 18.6492 74.9981 20.4795 75.7945 22.4948C76.5909 24.5101 76.9652 26.6673 76.8943 28.8331Z" fill="url(#paint13_radial_186_51974)"/>
<path d="M78.5264 7.13828e-07C78.3564 -0.000177873 78.188 0.0331548 78.0309 0.098093C77.8737 0.163031 77.731 0.258301 77.6107 0.378457C77.4904 0.498613 77.395 0.641297 77.3299 0.798354C77.2648 0.95541 77.2313 1.12376 77.2313 1.29377V14.3864C77.2307 14.5005 77.1956 14.6118 77.1305 14.7056C77.0654 14.7993 76.9734 14.8711 76.8667 14.9114C76.7599 14.9517 76.6434 14.9588 76.5326 14.9315C76.4218 14.9043 76.3219 14.844 76.246 14.7588C74.3395 12.6186 72.0012 10.9066 69.3852 9.73537C66.7692 8.56416 63.9348 7.96038 61.0686 7.96377C52.1794 7.96377 44.7375 13.2054 42.0086 20.9762C41.7952 21.5837 41.2122 22.8571 40.568 22.8707C39.9076 22.8571 39.3042 21.6095 39.0459 21.0007C35.9855 13.8129 28.8045 9.00477 20.3623 9.00477C17.6478 9.00363 14.9604 9.54551 12.4584 10.5985C9.95639 11.6515 7.69029 13.1944 5.79348 15.1363C3.89666 17.0782 2.40746 19.3799 1.4135 21.9059C0.419546 24.432 -0.0590714 27.1313 0.00581603 29.8451C0.265386 40.6424 9.07038 49.4474 19.8677 49.7029C24.8009 49.8198 29.9066 47.7758 33.5066 44.9464C33.6815 44.8015 33.8876 44.6992 34.1087 44.6474C35.0872 44.4435 35.0301 45.6449 35.1021 46.55C35.1089 46.6288 35.1198 54.2759 35.1198 57.9901C35.1198 57.9969 39.1737 57.9901 39.1737 57.9901C39.1777 57.9901 39.1815 57.9885 39.1843 57.9857C39.1871 57.9829 39.1886 57.9791 39.1886 57.9751V57.1964C39.1886 50.7466 39.0623 35.1874 39.0623 35.1874C39.0623 35.1874 36.51 30.2501 36.2219 30.1726C36.2219 30.1726 36.2518 31.7056 36.2301 31.7708C36.1581 31.9774 35.6675 33.6992 35.4391 34.2415C35.3943 34.3461 35.3522 34.4508 35.3155 34.5581C34.2016 37.7577 32.0912 40.5159 29.2942 42.4277C26.4972 44.3395 23.1609 45.3042 19.7753 45.1801C11.4051 44.8784 4.65361 37.9774 4.52451 29.6018C4.49188 27.5017 4.87737 25.416 5.65852 23.4662C6.43967 21.5165 7.60089 19.7416 9.07456 18.2449C10.5482 16.7482 12.3049 15.5596 14.2423 14.7483C16.1798 13.9371 18.2592 13.5193 20.3596 13.5194C20.5431 13.5194 20.7252 13.5194 20.9032 13.5289C26.3882 13.7151 31.3363 16.8843 34.0176 21.672L40.4946 32.8879L43.1366 37.9529C43.1841 38.0413 43.2344 38.1269 43.2833 38.2152L43.5279 38.6515C45.3816 41.7961 48.0472 44.3839 51.2454 46.1435C54.4435 47.9032 58.0563 48.7698 61.7046 48.6524C72.7234 48.3153 81.4021 39.1013 81.4211 28.077C81.4211 27.369 81.4211 26.6827 81.4211 25.976V7.13828e-07H78.5264ZM81.1547 25.9815C81.1547 26.3728 81.1547 26.7588 81.1547 27.1448C81.1547 27.456 81.1547 27.7672 81.1547 28.0811C81.1552 33.3373 79.1282 38.3912 75.4958 42.1903C71.8962 45.9989 66.9333 48.225 61.6951 48.3806C61.4858 48.3806 61.2752 48.3901 61.0673 48.3901C57.5729 48.3918 54.1385 47.4813 51.1041 45.7484C48.0696 44.0156 45.5401 41.5205 43.7658 38.5101L43.6407 38.2995L43.4641 37.9842L43.3744 37.8238L40.7352 32.7629L34.2527 21.5361C31.498 16.6166 26.3868 13.4433 20.9127 13.2571C20.7279 13.2571 20.5404 13.2476 20.3556 13.2476C16.1194 13.2241 12.0445 14.8703 9.0134 17.8296C5.98226 20.7889 4.23887 24.8232 4.16077 29.0586C4.08267 33.2941 5.67616 37.3899 8.59615 40.4589C11.5161 43.528 15.5275 45.3233 19.7617 45.456C19.9587 45.4641 20.1585 45.4669 20.3556 45.4669C23.7002 45.4659 26.9617 44.4246 29.6882 42.4873C32.4146 40.5501 34.471 37.8127 35.5723 34.6546C35.6036 34.5663 35.6403 34.4712 35.6892 34.3556C35.8604 33.9479 36.1662 32.93 36.3483 32.3171C36.4122 32.1011 36.4679 31.9162 36.4842 31.8632C36.5005 31.8102 36.5128 31.7803 36.5046 31.0478C37.0876 32.0304 38.0878 33.9017 38.7877 35.2607C38.7986 36.5219 38.9141 50.9939 38.9141 57.2032V57.7251H38.2074C36.4937 57.7251 35.7286 57.7251 35.3916 57.7251C35.3916 54.3819 35.3807 46.6315 35.3726 46.5323C35.3644 46.4331 35.359 46.3217 35.3522 46.2143C35.3046 45.4315 35.238 44.3606 34.3139 44.3606C34.2262 44.3612 34.1387 44.3708 34.053 44.3892C33.7908 44.4493 33.5462 44.5694 33.3381 44.7398C29.5914 47.6861 24.7057 49.4433 20.2699 49.4433C20.134 49.4433 19.9981 49.4433 19.8731 49.4433C14.597 49.3063 9.58682 47.0977 5.92647 43.2953C2.26612 39.4929 0.249843 34.4023 0.313783 29.1248C0.377723 23.8472 2.51674 18.807 6.26814 15.0944C10.0195 11.3817 15.0817 9.2952 20.3596 9.28608C24.334 9.26379 28.2292 10.3969 31.5714 12.5477C34.7798 14.6204 37.2948 17.6054 38.7932 21.1189C39.3626 22.4589 39.9578 23.1438 40.5599 23.1574C41.4922 23.1384 42.1418 21.4233 42.2627 21.0795C44.9997 13.2856 52.3805 8.24916 61.0659 8.24916C63.8931 8.25179 66.6881 8.85044 69.2683 10.006C71.8486 11.1617 74.1563 12.8483 76.0408 14.9558C76.1531 15.0831 76.3015 15.1731 76.4662 15.2139C76.631 15.2547 76.8042 15.2444 76.963 15.1844C77.1217 15.1243 77.2584 15.0174 77.3549 14.8778C77.4514 14.7381 77.503 14.5724 77.5031 14.4027V1.29377C77.5038 1.02272 77.6119 0.762984 77.8037 0.571444C77.9955 0.379904 78.2553 0.27216 78.5264 0.271802H81.1547V25.9815Z" fill="url(#paint14_radial_186_51974)"/>
<path d="M61.066 12.207C60.8906 12.207 60.7153 12.207 60.5387 12.2152C56.3117 12.3497 52.3071 14.1411 49.3896 17.2027C46.4721 20.2643 44.8756 24.3505 44.9448 28.579C45.014 32.8076 46.7434 36.8393 49.7596 39.8037C52.7758 42.7682 56.8368 44.4276 61.066 44.4236C61.2413 44.4236 61.4166 44.4236 61.5932 44.4155C65.8202 44.281 69.8248 42.4895 72.7423 39.4279C75.6599 36.3663 77.2564 32.2802 77.1871 28.0516C77.1179 23.8231 75.3885 19.7914 72.3723 16.8269C69.3561 13.8625 65.2951 12.2031 61.066 12.207ZM76.8943 28.8331C76.6293 37.123 69.8764 43.8786 61.5837 44.1423C59.418 44.2132 57.2607 43.8389 55.2455 43.0425C53.2302 42.2461 51.3998 41.0446 49.8675 39.5124C48.3353 37.9801 47.1338 36.1497 46.3374 34.1345C45.5411 32.1192 45.1667 29.9619 45.2376 27.7962C45.5026 19.5063 52.2555 12.752 60.5482 12.487C62.7139 12.4161 64.8712 12.7904 66.8865 13.5868C68.9017 14.3832 70.7321 15.5847 72.2644 17.1169C73.7966 18.6492 74.9981 20.4795 75.7945 22.4948C76.5909 24.5101 76.9652 26.6673 76.8943 28.8331Z" fill="url(#paint15_radial_186_51974)"/>
<path d="M78.5264 7.13828e-07C78.3564 -0.000177873 78.188 0.0331548 78.0309 0.098093C77.8737 0.163031 77.731 0.258301 77.6107 0.378457C77.4904 0.498613 77.395 0.641297 77.3299 0.798354C77.2648 0.95541 77.2313 1.12376 77.2313 1.29377V14.3864C77.2307 14.5005 77.1956 14.6118 77.1305 14.7056C77.0654 14.7993 76.9734 14.8711 76.8667 14.9114C76.7599 14.9517 76.6434 14.9588 76.5326 14.9315C76.4218 14.9043 76.3219 14.844 76.246 14.7588C74.3395 12.6186 72.0012 10.9066 69.3852 9.73537C66.7692 8.56416 63.9348 7.96038 61.0686 7.96377C52.1794 7.96377 44.7375 13.2054 42.0086 20.9762C41.7952 21.5837 41.2122 22.8571 40.568 22.8707C39.9076 22.8571 39.3042 21.6095 39.0459 21.0007C35.9855 13.8129 28.8045 9.00477 20.3623 9.00477C17.6478 9.00363 14.9604 9.54551 12.4584 10.5985C9.95639 11.6515 7.69029 13.1944 5.79348 15.1363C3.89666 17.0782 2.40746 19.3799 1.4135 21.9059C0.419546 24.432 -0.0590714 27.1313 0.00581603 29.8451C0.265386 40.6424 9.07038 49.4474 19.8677 49.7029C24.8009 49.8198 29.9066 47.7758 33.5066 44.9464C33.6815 44.8015 33.8876 44.6992 34.1087 44.6474C35.0872 44.4435 35.0301 45.6449 35.1021 46.55C35.1089 46.6288 35.1198 54.2759 35.1198 57.9901C35.1198 57.9969 39.1737 57.9901 39.1737 57.9901C39.1777 57.9901 39.1815 57.9885 39.1843 57.9857C39.1871 57.9829 39.1886 57.9791 39.1886 57.9751V57.1964C39.1886 50.7466 39.0623 35.1874 39.0623 35.1874C39.0623 35.1874 36.51 30.2501 36.2219 30.1726C36.2219 30.1726 36.2518 31.7056 36.2301 31.7708C36.1581 31.9774 35.6675 33.6992 35.4391 34.2415C35.3943 34.3461 35.3522 34.4508 35.3155 34.5581C34.2016 37.7577 32.0912 40.5159 29.2942 42.4277C26.4972 44.3395 23.1609 45.3042 19.7753 45.1801C11.4051 44.8784 4.65361 37.9774 4.52451 29.6018C4.49188 27.5017 4.87737 25.416 5.65852 23.4662C6.43967 21.5165 7.60089 19.7416 9.07456 18.2449C10.5482 16.7482 12.3049 15.5596 14.2423 14.7483C16.1798 13.9371 18.2592 13.5193 20.3596 13.5194C20.5431 13.5194 20.7252 13.5194 20.9032 13.5289C26.3882 13.7151 31.3363 16.8843 34.0176 21.672L40.4946 32.8879L43.1366 37.9529C43.1841 38.0413 43.2344 38.1269 43.2833 38.2152L43.5279 38.6515C45.3816 41.7961 48.0472 44.3839 51.2454 46.1435C54.4435 47.9032 58.0563 48.7698 61.7046 48.6524C72.7234 48.3153 81.4021 39.1013 81.4211 28.077C81.4211 27.369 81.4211 26.6827 81.4211 25.976V7.13828e-07H78.5264ZM81.1547 25.9815C81.1547 26.3728 81.1547 26.7588 81.1547 27.1448C81.1547 27.456 81.1547 27.7672 81.1547 28.0811C81.1552 33.3373 79.1282 38.3912 75.4958 42.1903C71.8962 45.9989 66.9333 48.225 61.6951 48.3806C61.4858 48.3806 61.2752 48.3901 61.0673 48.3901C57.5729 48.3918 54.1385 47.4813 51.1041 45.7484C48.0696 44.0156 45.5401 41.5205 43.7658 38.5101L43.6407 38.2995L43.4641 37.9842L43.3744 37.8238L40.7352 32.7629L34.2527 21.5361C31.498 16.6166 26.3868 13.4433 20.9127 13.2571C20.7279 13.2571 20.5404 13.2476 20.3556 13.2476C16.1194 13.2241 12.0445 14.8703 9.0134 17.8296C5.98226 20.7889 4.23887 24.8232 4.16077 29.0586C4.08267 33.2941 5.67616 37.3899 8.59615 40.4589C11.5161 43.528 15.5275 45.3233 19.7617 45.456C19.9587 45.4641 20.1585 45.4669 20.3556 45.4669C23.7002 45.4659 26.9617 44.4246 29.6882 42.4873C32.4146 40.5501 34.471 37.8127 35.5723 34.6546C35.6036 34.5663 35.6403 34.4712 35.6892 34.3556C35.8604 33.9479 36.1662 32.93 36.3483 32.3171C36.4122 32.1011 36.4679 31.9162 36.4842 31.8632C36.5005 31.8102 36.5128 31.7803 36.5046 31.0478C37.0876 32.0304 38.0878 33.9017 38.7877 35.2607C38.7986 36.5219 38.9141 50.9939 38.9141 57.2032V57.7251H38.2074C36.4937 57.7251 35.7286 57.7251 35.3916 57.7251C35.3916 54.3819 35.3807 46.6315 35.3726 46.5323C35.3644 46.4331 35.359 46.3217 35.3522 46.2143C35.3046 45.4315 35.238 44.3606 34.3139 44.3606C34.2262 44.3612 34.1387 44.3708 34.053 44.3892C33.7908 44.4493 33.5462 44.5694 33.3381 44.7398C29.5914 47.6861 24.7057 49.4433 20.2699 49.4433C20.134 49.4433 19.9981 49.4433 19.8731 49.4433C14.597 49.3063 9.58682 47.0977 5.92647 43.2953C2.26612 39.4929 0.249843 34.4023 0.313783 29.1248C0.377723 23.8472 2.51674 18.807 6.26814 15.0944C10.0195 11.3817 15.0817 9.2952 20.3596 9.28608C24.334 9.26379 28.2292 10.3969 31.5714 12.5477C34.7798 14.6204 37.2948 17.6054 38.7932 21.1189C39.3626 22.4589 39.9578 23.1438 40.5599 23.1574C41.4922 23.1384 42.1418 21.4233 42.2627 21.0795C44.9997 13.2856 52.3805 8.24916 61.0659 8.24916C63.8931 8.25179 66.6881 8.85044 69.2683 10.006C71.8486 11.1617 74.1563 12.8483 76.0408 14.9558C76.1531 15.0831 76.3015 15.1731 76.4662 15.2139C76.631 15.2547 76.8042 15.2444 76.963 15.1844C77.1217 15.1243 77.2584 15.0174 77.3549 14.8778C77.4514 14.7381 77.503 14.5724 77.5031 14.4027V1.29377C77.5038 1.02272 77.6119 0.762984 77.8037 0.571444C77.9955 0.379904 78.2553 0.27216 78.5264 0.271802H81.1547V25.9815Z" fill="url(#paint16_radial_186_51974)"/>
<path d="M61.066 12.207C60.8906 12.207 60.7153 12.207 60.5387 12.2152C56.3117 12.3497 52.3071 14.1411 49.3896 17.2027C46.4721 20.2643 44.8756 24.3505 44.9448 28.579C45.014 32.8076 46.7434 36.8393 49.7596 39.8037C52.7758 42.7682 56.8368 44.4276 61.066 44.4236C61.2413 44.4236 61.4166 44.4236 61.5932 44.4155C65.8202 44.281 69.8248 42.4895 72.7423 39.4279C75.6599 36.3663 77.2564 32.2802 77.1871 28.0516C77.1179 23.8231 75.3885 19.7914 72.3723 16.8269C69.3561 13.8625 65.2951 12.2031 61.066 12.207ZM76.8943 28.8331C76.6293 37.123 69.8764 43.8786 61.5837 44.1423C59.418 44.2132 57.2607 43.8389 55.2455 43.0425C53.2302 42.2461 51.3998 41.0446 49.8675 39.5124C48.3353 37.9801 47.1338 36.1497 46.3374 34.1345C45.5411 32.1192 45.1667 29.9619 45.2376 27.7962C45.5026 19.5063 52.2555 12.752 60.5482 12.487C62.7139 12.4161 64.8712 12.7904 66.8865 13.5868C68.9017 14.3832 70.7321 15.5847 72.2644 17.1169C73.7966 18.6492 74.9981 20.4795 75.7945 22.4948C76.5909 24.5101 76.9652 26.6673 76.8943 28.8331Z" fill="url(#paint17_radial_186_51974)"/>
<path d="M78.5264 7.13828e-07C78.3564 -0.000177873 78.188 0.0331548 78.0309 0.098093C77.8737 0.163031 77.731 0.258301 77.6107 0.378457C77.4904 0.498613 77.395 0.641297 77.3299 0.798354C77.2648 0.95541 77.2313 1.12376 77.2313 1.29377V14.3864C77.2307 14.5005 77.1956 14.6118 77.1305 14.7056C77.0654 14.7993 76.9734 14.8711 76.8667 14.9114C76.7599 14.9517 76.6434 14.9588 76.5326 14.9315C76.4218 14.9043 76.3219 14.844 76.246 14.7588C74.3395 12.6186 72.0012 10.9066 69.3852 9.73537C66.7692 8.56416 63.9348 7.96038 61.0686 7.96377C52.1794 7.96377 44.7375 13.2054 42.0086 20.9762C41.7952 21.5837 41.2122 22.8571 40.568 22.8707C39.9076 22.8571 39.3042 21.6095 39.0459 21.0007C35.9855 13.8129 28.8045 9.00477 20.3623 9.00477C17.6478 9.00363 14.9604 9.54551 12.4584 10.5985C9.95639 11.6515 7.69029 13.1944 5.79348 15.1363C3.89666 17.0782 2.40746 19.3799 1.4135 21.9059C0.419546 24.432 -0.0590714 27.1313 0.00581603 29.8451C0.265386 40.6424 9.07038 49.4474 19.8677 49.7029C24.8009 49.8198 29.9066 47.7758 33.5066 44.9464C33.6815 44.8015 33.8876 44.6992 34.1087 44.6474C35.0872 44.4435 35.0301 45.6449 35.1021 46.55C35.1089 46.6288 35.1198 54.2759 35.1198 57.9901C35.1198 57.9969 39.1737 57.9901 39.1737 57.9901C39.1777 57.9901 39.1815 57.9885 39.1843 57.9857C39.1871 57.9829 39.1886 57.9791 39.1886 57.9751V57.1964C39.1886 50.7466 39.0623 35.1874 39.0623 35.1874C39.0623 35.1874 36.51 30.2501 36.2219 30.1726C36.2219 30.1726 36.2518 31.7056 36.2301 31.7708C36.1581 31.9774 35.6675 33.6992 35.4391 34.2415C35.3943 34.3461 35.3522 34.4508 35.3155 34.5581C34.2016 37.7577 32.0912 40.5159 29.2942 42.4277C26.4972 44.3395 23.1609 45.3042 19.7753 45.1801C11.4051 44.8784 4.65361 37.9774 4.52451 29.6018C4.49188 27.5017 4.87737 25.416 5.65852 23.4662C6.43967 21.5165 7.60089 19.7416 9.07456 18.2449C10.5482 16.7482 12.3049 15.5596 14.2423 14.7483C16.1798 13.9371 18.2592 13.5193 20.3596 13.5194C20.5431 13.5194 20.7252 13.5194 20.9032 13.5289C26.3882 13.7151 31.3363 16.8843 34.0176 21.672L40.4946 32.8879L43.1366 37.9529C43.1841 38.0413 43.2344 38.1269 43.2833 38.2152L43.5279 38.6515C45.3816 41.7961 48.0472 44.3839 51.2454 46.1435C54.4435 47.9032 58.0563 48.7698 61.7046 48.6524C72.7234 48.3153 81.4021 39.1013 81.4211 28.077C81.4211 27.369 81.4211 26.6827 81.4211 25.976V7.13828e-07H78.5264ZM81.1547 25.9815C81.1547 26.3728 81.1547 26.7588 81.1547 27.1448C81.1547 27.456 81.1547 27.7672 81.1547 28.0811C81.1552 33.3373 79.1282 38.3912 75.4958 42.1903C71.8962 45.9989 66.9333 48.225 61.6951 48.3806C61.4858 48.3806 61.2752 48.3901 61.0673 48.3901C57.5729 48.3918 54.1385 47.4813 51.1041 45.7484C48.0696 44.0156 45.5401 41.5205 43.7658 38.5101L43.6407 38.2995L43.4641 37.9842L43.3744 37.8238L40.7352 32.7629L34.2527 21.5361C31.498 16.6166 26.3868 13.4433 20.9127 13.2571C20.7279 13.2571 20.5404 13.2476 20.3556 13.2476C16.1194 13.2241 12.0445 14.8703 9.0134 17.8296C5.98226 20.7889 4.23887 24.8232 4.16077 29.0586C4.08267 33.2941 5.67616 37.3899 8.59615 40.4589C11.5161 43.528 15.5275 45.3233 19.7617 45.456C19.9587 45.4641 20.1585 45.4669 20.3556 45.4669C23.7002 45.4659 26.9617 44.4246 29.6882 42.4873C32.4146 40.5501 34.471 37.8127 35.5723 34.6546C35.6036 34.5663 35.6403 34.4712 35.6892 34.3556C35.8604 33.9479 36.1662 32.93 36.3483 32.3171C36.4122 32.1011 36.4679 31.9162 36.4842 31.8632C36.5005 31.8102 36.5128 31.7803 36.5046 31.0478C37.0876 32.0304 38.0878 33.9017 38.7877 35.2607C38.7986 36.5219 38.9141 50.9939 38.9141 57.2032V57.7251H38.2074C36.4937 57.7251 35.7286 57.7251 35.3916 57.7251C35.3916 54.3819 35.3807 46.6315 35.3726 46.5323C35.3644 46.4331 35.359 46.3217 35.3522 46.2143C35.3046 45.4315 35.238 44.3606 34.3139 44.3606C34.2262 44.3612 34.1387 44.3708 34.053 44.3892C33.7908 44.4493 33.5462 44.5694 33.3381 44.7398C29.5914 47.6861 24.7057 49.4433 20.2699 49.4433C20.134 49.4433 19.9981 49.4433 19.8731 49.4433C14.597 49.3063 9.58682 47.0977 5.92647 43.2953C2.26612 39.4929 0.249843 34.4023 0.313783 29.1248C0.377723 23.8472 2.51674 18.807 6.26814 15.0944C10.0195 11.3817 15.0817 9.2952 20.3596 9.28608C24.334 9.26379 28.2292 10.3969 31.5714 12.5477C34.7798 14.6204 37.2948 17.6054 38.7932 21.1189C39.3626 22.4589 39.9578 23.1438 40.5599 23.1574C41.4922 23.1384 42.1418 21.4233 42.2627 21.0795C44.9997 13.2856 52.3805 8.24916 61.0659 8.24916C63.8931 8.25179 66.6881 8.85044 69.2683 10.006C71.8486 11.1617 74.1563 12.8483 76.0408 14.9558C76.1531 15.0831 76.3015 15.1731 76.4662 15.2139C76.631 15.2547 76.8042 15.2444 76.963 15.1844C77.1217 15.1243 77.2584 15.0174 77.3549 14.8778C77.4514 14.7381 77.503 14.5724 77.5031 14.4027V1.29377C77.5038 1.02272 77.6119 0.762984 77.8037 0.571444C77.9955 0.379904 78.2553 0.27216 78.5264 0.271802H81.1547V25.9815Z" fill="url(#paint18_radial_186_51974)"/>
<path d="M61.066 12.207C60.8906 12.207 60.7153 12.207 60.5387 12.2152C56.3117 12.3497 52.3071 14.1411 49.3896 17.2027C46.4721 20.2643 44.8756 24.3505 44.9448 28.579C45.014 32.8076 46.7434 36.8393 49.7596 39.8037C52.7758 42.7682 56.8368 44.4276 61.066 44.4236C61.2413 44.4236 61.4166 44.4236 61.5932 44.4155C65.8202 44.281 69.8248 42.4895 72.7423 39.4279C75.6599 36.3663 77.2564 32.2802 77.1871 28.0516C77.1179 23.8231 75.3885 19.7914 72.3723 16.8269C69.3561 13.8625 65.2951 12.2031 61.066 12.207ZM76.8943 28.8331C76.6293 37.123 69.8764 43.8786 61.5837 44.1423C59.418 44.2132 57.2607 43.8389 55.2455 43.0425C53.2302 42.2461 51.3998 41.0446 49.8675 39.5124C48.3353 37.9801 47.1338 36.1497 46.3374 34.1345C45.5411 32.1192 45.1667 29.9619 45.2376 27.7962C45.5026 19.5063 52.2555 12.752 60.5482 12.487C62.7139 12.4161 64.8712 12.7904 66.8865 13.5868C68.9017 14.3832 70.7321 15.5847 72.2644 17.1169C73.7966 18.6492 74.9981 20.4795 75.7945 22.4948C76.5909 24.5101 76.9652 26.6673 76.8943 28.8331Z" fill="url(#paint19_radial_186_51974)"/>
<path d="M78.5264 7.13828e-07C78.3564 -0.000177873 78.188 0.0331548 78.0309 0.098093C77.8737 0.163031 77.731 0.258301 77.6107 0.378457C77.4904 0.498613 77.395 0.641297 77.3299 0.798354C77.2648 0.95541 77.2313 1.12376 77.2313 1.29377V14.3864C77.2307 14.5005 77.1956 14.6118 77.1305 14.7056C77.0654 14.7993 76.9734 14.8711 76.8667 14.9114C76.7599 14.9517 76.6434 14.9588 76.5326 14.9315C76.4218 14.9043 76.3219 14.844 76.246 14.7588C74.3395 12.6186 72.0012 10.9066 69.3852 9.73537C66.7692 8.56416 63.9348 7.96038 61.0686 7.96377C52.1794 7.96377 44.7375 13.2054 42.0086 20.9762C41.7952 21.5837 41.2122 22.8571 40.568 22.8707C39.9076 22.8571 39.3042 21.6095 39.0459 21.0007C35.9855 13.8129 28.8045 9.00477 20.3623 9.00477C17.6478 9.00363 14.9604 9.54551 12.4584 10.5985C9.95639 11.6515 7.69029 13.1944 5.79348 15.1363C3.89666 17.0782 2.40746 19.3799 1.4135 21.9059C0.419546 24.432 -0.0590714 27.1313 0.00581603 29.8451C0.265386 40.6424 9.07038 49.4474 19.8677 49.7029C24.8009 49.8198 29.9066 47.7758 33.5066 44.9464C33.6815 44.8015 33.8876 44.6992 34.1087 44.6474C35.0872 44.4435 35.0301 45.6449 35.1021 46.55C35.1089 46.6288 35.1198 54.2759 35.1198 57.9901C35.1198 57.9969 39.1737 57.9901 39.1737 57.9901C39.1777 57.9901 39.1815 57.9885 39.1843 57.9857C39.1871 57.9829 39.1886 57.9791 39.1886 57.9751V57.1964C39.1886 50.7466 39.0623 35.1874 39.0623 35.1874C39.0623 35.1874 36.51 30.2501 36.2219 30.1726C36.2219 30.1726 36.2518 31.7056 36.2301 31.7708C36.1581 31.9774 35.6675 33.6992 35.4391 34.2415C35.3943 34.3461 35.3522 34.4508 35.3155 34.5581C34.2016 37.7577 32.0912 40.5159 29.2942 42.4277C26.4972 44.3395 23.1609 45.3042 19.7753 45.1801C11.4051 44.8784 4.65361 37.9774 4.52451 29.6018C4.49188 27.5017 4.87737 25.416 5.65852 23.4662C6.43967 21.5165 7.60089 19.7416 9.07456 18.2449C10.5482 16.7482 12.3049 15.5596 14.2423 14.7483C16.1798 13.9371 18.2592 13.5193 20.3596 13.5194C20.5431 13.5194 20.7252 13.5194 20.9032 13.5289C26.3882 13.7151 31.3363 16.8843 34.0176 21.672L40.4946 32.8879L43.1366 37.9529C43.1841 38.0413 43.2344 38.1269 43.2833 38.2152L43.5279 38.6515C45.3816 41.7961 48.0472 44.3839 51.2454 46.1435C54.4435 47.9032 58.0563 48.7698 61.7046 48.6524C72.7234 48.3153 81.4021 39.1013 81.4211 28.077C81.4211 27.369 81.4211 26.6827 81.4211 25.976V7.13828e-07H78.5264ZM81.1547 25.9815C81.1547 26.3728 81.1547 26.7588 81.1547 27.1448C81.1547 27.456 81.1547 27.7672 81.1547 28.0811C81.1552 33.3373 79.1282 38.3912 75.4958 42.1903C71.8962 45.9989 66.9333 48.225 61.6951 48.3806C61.4858 48.3806 61.2752 48.3901 61.0673 48.3901C57.5729 48.3918 54.1385 47.4813 51.1041 45.7484C48.0696 44.0156 45.5401 41.5205 43.7658 38.5101L43.6407 38.2995L43.4641 37.9842L43.3744 37.8238L40.7352 32.7629L34.2527 21.5361C31.498 16.6166 26.3868 13.4433 20.9127 13.2571C20.7279 13.2571 20.5404 13.2476 20.3556 13.2476C16.1194 13.2241 12.0445 14.8703 9.0134 17.8296C5.98226 20.7889 4.23887 24.8232 4.16077 29.0586C4.08267 33.2941 5.67616 37.3899 8.59615 40.4589C11.5161 43.528 15.5275 45.3233 19.7617 45.456C19.9587 45.4641 20.1585 45.4669 20.3556 45.4669C23.7002 45.4659 26.9617 44.4246 29.6882 42.4873C32.4146 40.5501 34.471 37.8127 35.5723 34.6546C35.6036 34.5663 35.6403 34.4712 35.6892 34.3556C35.8604 33.9479 36.1662 32.93 36.3483 32.3171C36.4122 32.1011 36.4679 31.9162 36.4842 31.8632C36.5005 31.8102 36.5128 31.7803 36.5046 31.0478C37.0876 32.0304 38.0878 33.9017 38.7877 35.2607C38.7986 36.5219 38.9141 50.9939 38.9141 57.2032V57.7251H38.2074C36.4937 57.7251 35.7286 57.7251 35.3916 57.7251C35.3916 54.3819 35.3807 46.6315 35.3726 46.5323C35.3644 46.4331 35.359 46.3217 35.3522 46.2143C35.3046 45.4315 35.238 44.3606 34.3139 44.3606C34.2262 44.3612 34.1387 44.3708 34.053 44.3892C33.7908 44.4493 33.5462 44.5694 33.3381 44.7398C29.5914 47.6861 24.7057 49.4433 20.2699 49.4433C20.134 49.4433 19.9981 49.4433 19.8731 49.4433C14.597 49.3063 9.58682 47.0977 5.92647 43.2953C2.26612 39.4929 0.249843 34.4023 0.313783 29.1248C0.377723 23.8472 2.51674 18.807 6.26814 15.0944C10.0195 11.3817 15.0817 9.2952 20.3596 9.28608C24.334 9.26379 28.2292 10.3969 31.5714 12.5477C34.7798 14.6204 37.2948 17.6054 38.7932 21.1189C39.3626 22.4589 39.9578 23.1438 40.5599 23.1574C41.4922 23.1384 42.1418 21.4233 42.2627 21.0795C44.9997 13.2856 52.3805 8.24916 61.0659 8.24916C63.8931 8.25179 66.6881 8.85044 69.2683 10.006C71.8486 11.1617 74.1563 12.8483 76.0408 14.9558C76.1531 15.0831 76.3015 15.1731 76.4662 15.2139C76.631 15.2547 76.8042 15.2444 76.963 15.1844C77.1217 15.1243 77.2584 15.0174 77.3549 14.8778C77.4514 14.7381 77.503 14.5724 77.5031 14.4027V1.29377C77.5038 1.02272 77.6119 0.762984 77.8037 0.571444C77.9955 0.379904 78.2553 0.27216 78.5264 0.271802H81.1547V25.9815Z" fill="url(#paint20_radial_186_51974)"/>
<path d="M61.066 12.207C60.8906 12.207 60.7153 12.207 60.5387 12.2152C56.3117 12.3497 52.3071 14.1411 49.3896 17.2027C46.4721 20.2643 44.8756 24.3505 44.9448 28.579C45.014 32.8076 46.7434 36.8393 49.7596 39.8037C52.7758 42.7682 56.8368 44.4276 61.066 44.4236C61.2413 44.4236 61.4166 44.4236 61.5932 44.4155C65.8202 44.281 69.8248 42.4895 72.7423 39.4279C75.6599 36.3663 77.2564 32.2802 77.1871 28.0516C77.1179 23.8231 75.3885 19.7914 72.3723 16.8269C69.3561 13.8625 65.2951 12.2031 61.066 12.207ZM76.8943 28.8331C76.6293 37.123 69.8764 43.8786 61.5837 44.1423C59.418 44.2132 57.2607 43.8389 55.2455 43.0425C53.2302 42.2461 51.3998 41.0446 49.8675 39.5124C48.3353 37.9801 47.1338 36.1497 46.3374 34.1345C45.5411 32.1192 45.1667 29.9619 45.2376 27.7962C45.5026 19.5063 52.2555 12.752 60.5482 12.487C62.7139 12.4161 64.8712 12.7904 66.8865 13.5868C68.9017 14.3832 70.7321 15.5847 72.2644 17.1169C73.7966 18.6492 74.9981 20.4795 75.7945 22.4948C76.5909 24.5101 76.9652 26.6673 76.8943 28.8331Z" fill="url(#paint21_radial_186_51974)"/>
<path d="M78.5264 7.13828e-07C78.3564 -0.000177873 78.188 0.0331548 78.0309 0.098093C77.8737 0.163031 77.731 0.258301 77.6107 0.378457C77.4904 0.498613 77.395 0.641297 77.3299 0.798354C77.2648 0.95541 77.2313 1.12376 77.2313 1.29377V14.3864C77.2307 14.5005 77.1956 14.6118 77.1305 14.7056C77.0654 14.7993 76.9734 14.8711 76.8667 14.9114C76.7599 14.9517 76.6434 14.9588 76.5326 14.9315C76.4218 14.9043 76.3219 14.844 76.246 14.7588C74.3395 12.6186 72.0012 10.9066 69.3852 9.73537C66.7692 8.56416 63.9348 7.96038 61.0686 7.96377C52.1794 7.96377 44.7375 13.2054 42.0086 20.9762C41.7952 21.5837 41.2122 22.8571 40.568 22.8707C39.9076 22.8571 39.3042 21.6095 39.0459 21.0007C35.9855 13.8129 28.8045 9.00477 20.3623 9.00477C17.6478 9.00363 14.9604 9.54551 12.4584 10.5985C9.95639 11.6515 7.69029 13.1944 5.79348 15.1363C3.89666 17.0782 2.40746 19.3799 1.4135 21.9059C0.419546 24.432 -0.0590714 27.1313 0.00581603 29.8451C0.265386 40.6424 9.07038 49.4474 19.8677 49.7029C24.8009 49.8198 29.9066 47.7758 33.5066 44.9464C33.6815 44.8015 33.8876 44.6992 34.1087 44.6474C35.0872 44.4435 35.0301 45.6449 35.1021 46.55C35.1089 46.6288 35.1198 54.2759 35.1198 57.9901C35.1198 57.9969 39.1737 57.9901 39.1737 57.9901C39.1777 57.9901 39.1815 57.9885 39.1843 57.9857C39.1871 57.9829 39.1886 57.9791 39.1886 57.9751V57.1964C39.1886 50.7466 39.0623 35.1874 39.0623 35.1874C39.0623 35.1874 36.51 30.2501 36.2219 30.1726C36.2219 30.1726 36.2518 31.7056 36.2301 31.7708C36.1581 31.9774 35.6675 33.6992 35.4391 34.2415C35.3943 34.3461 35.3522 34.4508 35.3155 34.5581C34.2016 37.7577 32.0912 40.5159 29.2942 42.4277C26.4972 44.3395 23.1609 45.3042 19.7753 45.1801C11.4051 44.8784 4.65361 37.9774 4.52451 29.6018C4.49188 27.5017 4.87737 25.416 5.65852 23.4662C6.43967 21.5165 7.60089 19.7416 9.07456 18.2449C10.5482 16.7482 12.3049 15.5596 14.2423 14.7483C16.1798 13.9371 18.2592 13.5193 20.3596 13.5194C20.5431 13.5194 20.7252 13.5194 20.9032 13.5289C26.3882 13.7151 31.3363 16.8843 34.0176 21.672L40.4946 32.8879L43.1366 37.9529C43.1841 38.0413 43.2344 38.1269 43.2833 38.2152L43.5279 38.6515C45.3816 41.7961 48.0472 44.3839 51.2454 46.1435C54.4435 47.9032 58.0563 48.7698 61.7046 48.6524C72.7234 48.3153 81.4021 39.1013 81.4211 28.077C81.4211 27.369 81.4211 26.6827 81.4211 25.976V7.13828e-07H78.5264ZM81.1547 25.9815C81.1547 26.3728 81.1547 26.7588 81.1547 27.1448C81.1547 27.456 81.1547 27.7672 81.1547 28.0811C81.1552 33.3373 79.1282 38.3912 75.4958 42.1903C71.8962 45.9989 66.9333 48.225 61.6951 48.3806C61.4858 48.3806 61.2752 48.3901 61.0673 48.3901C57.5729 48.3918 54.1385 47.4813 51.1041 45.7484C48.0696 44.0156 45.5401 41.5205 43.7658 38.5101L43.6407 38.2995L43.4641 37.9842L43.3744 37.8238L40.7352 32.7629L34.2527 21.5361C31.498 16.6166 26.3868 13.4433 20.9127 13.2571C20.7279 13.2571 20.5404 13.2476 20.3556 13.2476C16.1194 13.2241 12.0445 14.8703 9.0134 17.8296C5.98226 20.7889 4.23887 24.8232 4.16077 29.0586C4.08267 33.2941 5.67616 37.3899 8.59615 40.4589C11.5161 43.528 15.5275 45.3233 19.7617 45.456C19.9587 45.4641 20.1585 45.4669 20.3556 45.4669C23.7002 45.4659 26.9617 44.4246 29.6882 42.4873C32.4146 40.5501 34.471 37.8127 35.5723 34.6546C35.6036 34.5663 35.6403 34.4712 35.6892 34.3556C35.8604 33.9479 36.1662 32.93 36.3483 32.3171C36.4122 32.1011 36.4679 31.9162 36.4842 31.8632C36.5005 31.8102 36.5128 31.7803 36.5046 31.0478C37.0876 32.0304 38.0878 33.9017 38.7877 35.2607C38.7986 36.5219 38.9141 50.9939 38.9141 57.2032V57.7251H38.2074C36.4937 57.7251 35.7286 57.7251 35.3916 57.7251C35.3916 54.3819 35.3807 46.6315 35.3726 46.5323C35.3644 46.4331 35.359 46.3217 35.3522 46.2143C35.3046 45.4315 35.238 44.3606 34.3139 44.3606C34.2262 44.3612 34.1387 44.3708 34.053 44.3892C33.7908 44.4493 33.5462 44.5694 33.3381 44.7398C29.5914 47.6861 24.7057 49.4433 20.2699 49.4433C20.134 49.4433 19.9981 49.4433 19.8731 49.4433C14.597 49.3063 9.58682 47.0977 5.92647 43.2953C2.26612 39.4929 0.249843 34.4023 0.313783 29.1248C0.377723 23.8472 2.51674 18.807 6.26814 15.0944C10.0195 11.3817 15.0817 9.2952 20.3596 9.28608C24.334 9.26379 28.2292 10.3969 31.5714 12.5477C34.7798 14.6204 37.2948 17.6054 38.7932 21.1189C39.3626 22.4589 39.9578 23.1438 40.5599 23.1574C41.4922 23.1384 42.1418 21.4233 42.2627 21.0795C44.9997 13.2856 52.3805 8.24916 61.0659 8.24916C63.8931 8.25179 66.6881 8.85044 69.2683 10.006C71.8486 11.1617 74.1563 12.8483 76.0408 14.9558C76.1531 15.0831 76.3015 15.1731 76.4662 15.2139C76.631 15.2547 76.8042 15.2444 76.963 15.1844C77.1217 15.1243 77.2584 15.0174 77.3549 14.8778C77.4514 14.7381 77.503 14.5724 77.5031 14.4027V1.29377C77.5038 1.02272 77.6119 0.762984 77.8037 0.571444C77.9955 0.379904 78.2553 0.27216 78.5264 0.271802H81.1547V25.9815Z" fill="url(#paint22_radial_186_51974)"/>
<path d="M61.066 12.207C60.8906 12.207 60.7153 12.207 60.5387 12.2152C56.3117 12.3497 52.3071 14.1411 49.3896 17.2027C46.4721 20.2643 44.8756 24.3505 44.9448 28.579C45.014 32.8076 46.7434 36.8393 49.7596 39.8037C52.7758 42.7682 56.8368 44.4276 61.066 44.4236C61.2413 44.4236 61.4166 44.4236 61.5932 44.4155C65.8202 44.281 69.8248 42.4895 72.7423 39.4279C75.6599 36.3663 77.2564 32.2802 77.1871 28.0516C77.1179 23.8231 75.3885 19.7914 72.3723 16.8269C69.3561 13.8625 65.2951 12.2031 61.066 12.207ZM76.8943 28.8331C76.6293 37.123 69.8764 43.8786 61.5837 44.1423C59.418 44.2132 57.2607 43.8389 55.2455 43.0425C53.2302 42.2461 51.3998 41.0446 49.8675 39.5124C48.3353 37.9801 47.1338 36.1497 46.3374 34.1345C45.5411 32.1192 45.1667 29.9619 45.2376 27.7962C45.5026 19.5063 52.2555 12.752 60.5482 12.487C62.7139 12.4161 64.8712 12.7904 66.8865 13.5868C68.9017 14.3832 70.7321 15.5847 72.2644 17.1169C73.7966 18.6492 74.9981 20.4795 75.7945 22.4948C76.5909 24.5101 76.9652 26.6673 76.8943 28.8331Z" fill="url(#paint23_radial_186_51974)"/>
<path d="M78.5264 7.13828e-07C78.3564 -0.000177873 78.188 0.0331548 78.0309 0.098093C77.8737 0.163031 77.731 0.258301 77.6107 0.378457C77.4904 0.498613 77.395 0.641297 77.3299 0.798354C77.2648 0.95541 77.2313 1.12376 77.2313 1.29377V14.3864C77.2307 14.5005 77.1956 14.6118 77.1305 14.7056C77.0654 14.7993 76.9734 14.8711 76.8667 14.9114C76.7599 14.9517 76.6434 14.9588 76.5326 14.9315C76.4218 14.9043 76.3219 14.844 76.246 14.7588C74.3395 12.6186 72.0012 10.9066 69.3852 9.73537C66.7692 8.56416 63.9348 7.96038 61.0686 7.96377C52.1794 7.96377 44.7375 13.2054 42.0086 20.9762C41.7952 21.5837 41.2122 22.8571 40.568 22.8707C39.9076 22.8571 39.3042 21.6095 39.0459 21.0007C35.9855 13.8129 28.8045 9.00477 20.3623 9.00477C17.6478 9.00363 14.9604 9.54551 12.4584 10.5985C9.95639 11.6515 7.69029 13.1944 5.79348 15.1363C3.89666 17.0782 2.40746 19.3799 1.4135 21.9059C0.419546 24.432 -0.0590714 27.1313 0.00581603 29.8451C0.265386 40.6424 9.07038 49.4474 19.8677 49.7029C24.8009 49.8198 29.9066 47.7758 33.5066 44.9464C33.6815 44.8015 33.8876 44.6992 34.1087 44.6474C35.0872 44.4435 35.0301 45.6449 35.1021 46.55C35.1089 46.6288 35.1198 54.2759 35.1198 57.9901C35.1198 57.9969 39.1737 57.9901 39.1737 57.9901C39.1777 57.9901 39.1815 57.9885 39.1843 57.9857C39.1871 57.9829 39.1886 57.9791 39.1886 57.9751V57.1964C39.1886 50.7466 39.0623 35.1874 39.0623 35.1874C39.0623 35.1874 36.51 30.2501 36.2219 30.1726C36.2219 30.1726 36.2518 31.7056 36.2301 31.7708C36.1581 31.9774 35.6675 33.6992 35.4391 34.2415C35.3943 34.3461 35.3522 34.4508 35.3155 34.5581C34.2016 37.7577 32.0912 40.5159 29.2942 42.4277C26.4972 44.3395 23.1609 45.3042 19.7753 45.1801C11.4051 44.8784 4.65361 37.9774 4.52451 29.6018C4.49188 27.5017 4.87737 25.416 5.65852 23.4662C6.43967 21.5165 7.60089 19.7416 9.07456 18.2449C10.5482 16.7482 12.3049 15.5596 14.2423 14.7483C16.1798 13.9371 18.2592 13.5193 20.3596 13.5194C20.5431 13.5194 20.7252 13.5194 20.9032 13.5289C26.3882 13.7151 31.3363 16.8843 34.0176 21.672L40.4946 32.8879L43.1366 37.9529C43.1841 38.0413 43.2344 38.1269 43.2833 38.2152L43.5279 38.6515C45.3816 41.7961 48.0472 44.3839 51.2454 46.1435C54.4435 47.9032 58.0563 48.7698 61.7046 48.6524C72.7234 48.3153 81.4021 39.1013 81.4211 28.077C81.4211 27.369 81.4211 26.6827 81.4211 25.976V7.13828e-07H78.5264ZM81.1547 25.9815C81.1547 26.3728 81.1547 26.7588 81.1547 27.1448C81.1547 27.456 81.1547 27.7672 81.1547 28.0811C81.1552 33.3373 79.1282 38.3912 75.4958 42.1903C71.8962 45.9989 66.9333 48.225 61.6951 48.3806C61.4858 48.3806 61.2752 48.3901 61.0673 48.3901C57.5729 48.3918 54.1385 47.4813 51.1041 45.7484C48.0696 44.0156 45.5401 41.5205 43.7658 38.5101L43.6407 38.2995L43.4641 37.9842L43.3744 37.8238L40.7352 32.7629L34.2527 21.5361C31.498 16.6166 26.3868 13.4433 20.9127 13.2571C20.7279 13.2571 20.5404 13.2476 20.3556 13.2476C16.1194 13.2241 12.0445 14.8703 9.0134 17.8296C5.98226 20.7889 4.23887 24.8232 4.16077 29.0586C4.08267 33.2941 5.67616 37.3899 8.59615 40.4589C11.5161 43.528 15.5275 45.3233 19.7617 45.456C19.9587 45.4641 20.1585 45.4669 20.3556 45.4669C23.7002 45.4659 26.9617 44.4246 29.6882 42.4873C32.4146 40.5501 34.471 37.8127 35.5723 34.6546C35.6036 34.5663 35.6403 34.4712 35.6892 34.3556C35.8604 33.9479 36.1662 32.93 36.3483 32.3171C36.4122 32.1011 36.4679 31.9162 36.4842 31.8632C36.5005 31.8102 36.5128 31.7803 36.5046 31.0478C37.0876 32.0304 38.0878 33.9017 38.7877 35.2607C38.7986 36.5219 38.9141 50.9939 38.9141 57.2032V57.7251H38.2074C36.4937 57.7251 35.7286 57.7251 35.3916 57.7251C35.3916 54.3819 35.3807 46.6315 35.3726 46.5323C35.3644 46.4331 35.359 46.3217 35.3522 46.2143C35.3046 45.4315 35.238 44.3606 34.3139 44.3606C34.2262 44.3612 34.1387 44.3708 34.053 44.3892C33.7908 44.4493 33.5462 44.5694 33.3381 44.7398C29.5914 47.6861 24.7057 49.4433 20.2699 49.4433C20.134 49.4433 19.9981 49.4433 19.8731 49.4433C14.597 49.3063 9.58682 47.0977 5.92647 43.2953C2.26612 39.4929 0.249843 34.4023 0.313783 29.1248C0.377723 23.8472 2.51674 18.807 6.26814 15.0944C10.0195 11.3817 15.0817 9.2952 20.3596 9.28608C24.334 9.26379 28.2292 10.3969 31.5714 12.5477C34.7798 14.6204 37.2948 17.6054 38.7932 21.1189C39.3626 22.4589 39.9578 23.1438 40.5599 23.1574C41.4922 23.1384 42.1418 21.4233 42.2627 21.0795C44.9997 13.2856 52.3805 8.24916 61.0659 8.24916C63.8931 8.25179 66.6881 8.85044 69.2683 10.006C71.8486 11.1617 74.1563 12.8483 76.0408 14.9558C76.1531 15.0831 76.3015 15.1731 76.4662 15.2139C76.631 15.2547 76.8042 15.2444 76.963 15.1844C77.1217 15.1243 77.2584 15.0174 77.3549 14.8778C77.4514 14.7381 77.503 14.5724 77.5031 14.4027V1.29377C77.5038 1.02272 77.6119 0.762984 77.8037 0.571444C77.9955 0.379904 78.2553 0.27216 78.5264 0.271802H81.1547V25.9815Z" fill="url(#paint24_radial_186_51974)"/>
<path d="M61.066 12.207C60.8906 12.207 60.7153 12.207 60.5387 12.2152C56.3117 12.3497 52.3071 14.1411 49.3896 17.2027C46.4721 20.2643 44.8756 24.3505 44.9448 28.579C45.014 32.8076 46.7434 36.8393 49.7596 39.8037C52.7758 42.7682 56.8368 44.4276 61.066 44.4236C61.2413 44.4236 61.4166 44.4236 61.5932 44.4155C65.8202 44.281 69.8248 42.4895 72.7423 39.4279C75.6599 36.3663 77.2564 32.2802 77.1871 28.0516C77.1179 23.8231 75.3885 19.7914 72.3723 16.8269C69.3561 13.8625 65.2951 12.2031 61.066 12.207ZM76.8943 28.8331C76.6293 37.123 69.8764 43.8786 61.5837 44.1423C59.418 44.2132 57.2607 43.8389 55.2455 43.0425C53.2302 42.2461 51.3998 41.0446 49.8675 39.5124C48.3353 37.9801 47.1338 36.1497 46.3374 34.1345C45.5411 32.1192 45.1667 29.9619 45.2376 27.7962C45.5026 19.5063 52.2555 12.752 60.5482 12.487C62.7139 12.4161 64.8712 12.7904 66.8865 13.5868C68.9017 14.3832 70.7321 15.5847 72.2644 17.1169C73.7966 18.6492 74.9981 20.4795 75.7945 22.4948C76.5909 24.5101 76.9652 26.6673 76.8943 28.8331Z" fill="url(#paint25_radial_186_51974)"/>
<path d="M78.5264 7.13828e-07C78.3564 -0.000177873 78.188 0.0331548 78.0309 0.098093C77.8737 0.163031 77.731 0.258301 77.6107 0.378457C77.4904 0.498613 77.395 0.641297 77.3299 0.798354C77.2648 0.95541 77.2313 1.12376 77.2313 1.29377V14.3864C77.2307 14.5005 77.1956 14.6118 77.1305 14.7056C77.0654 14.7993 76.9734 14.8711 76.8667 14.9114C76.7599 14.9517 76.6434 14.9588 76.5326 14.9315C76.4218 14.9043 76.3219 14.844 76.246 14.7588C74.3395 12.6186 72.0012 10.9066 69.3852 9.73537C66.7692 8.56416 63.9348 7.96038 61.0686 7.96377C52.1794 7.96377 44.7375 13.2054 42.0086 20.9762C41.7952 21.5837 41.2122 22.8571 40.568 22.8707C39.9076 22.8571 39.3042 21.6095 39.0459 21.0007C35.9855 13.8129 28.8045 9.00477 20.3623 9.00477C17.6478 9.00363 14.9604 9.54551 12.4584 10.5985C9.95639 11.6515 7.69029 13.1944 5.79348 15.1363C3.89666 17.0782 2.40746 19.3799 1.4135 21.9059C0.419546 24.432 -0.0590714 27.1313 0.00581603 29.8451C0.265386 40.6424 9.07038 49.4474 19.8677 49.7029C24.8009 49.8198 29.9066 47.7758 33.5066 44.9464C33.6815 44.8015 33.8876 44.6992 34.1087 44.6474C35.0872 44.4435 35.0301 45.6449 35.1021 46.55C35.1089 46.6288 35.1198 54.2759 35.1198 57.9901C35.1198 57.9969 39.1737 57.9901 39.1737 57.9901C39.1777 57.9901 39.1815 57.9885 39.1843 57.9857C39.1871 57.9829 39.1886 57.9791 39.1886 57.9751V57.1964C39.1886 50.7466 39.0623 35.1874 39.0623 35.1874C39.0623 35.1874 36.51 30.2501 36.2219 30.1726C36.2219 30.1726 36.2518 31.7056 36.2301 31.7708C36.1581 31.9774 35.6675 33.6992 35.4391 34.2415C35.3943 34.3461 35.3522 34.4508 35.3155 34.5581C34.2016 37.7577 32.0912 40.5159 29.2942 42.4277C26.4972 44.3395 23.1609 45.3042 19.7753 45.1801C11.4051 44.8784 4.65361 37.9774 4.52451 29.6018C4.49188 27.5017 4.87737 25.416 5.65852 23.4662C6.43967 21.5165 7.60089 19.7416 9.07456 18.2449C10.5482 16.7482 12.3049 15.5596 14.2423 14.7483C16.1798 13.9371 18.2592 13.5193 20.3596 13.5194C20.5431 13.5194 20.7252 13.5194 20.9032 13.5289C26.3882 13.7151 31.3363 16.8843 34.0176 21.672L40.4946 32.8879L43.1366 37.9529C43.1841 38.0413 43.2344 38.1269 43.2833 38.2152L43.5279 38.6515C45.3816 41.7961 48.0472 44.3839 51.2454 46.1435C54.4435 47.9032 58.0563 48.7698 61.7046 48.6524C72.7234 48.3153 81.4021 39.1013 81.4211 28.077C81.4211 27.369 81.4211 26.6827 81.4211 25.976V7.13828e-07H78.5264ZM81.1547 25.9815C81.1547 26.3728 81.1547 26.7588 81.1547 27.1448C81.1547 27.456 81.1547 27.7672 81.1547 28.0811C81.1552 33.3373 79.1282 38.3912 75.4958 42.1903C71.8962 45.9989 66.9333 48.225 61.6951 48.3806C61.4858 48.3806 61.2752 48.3901 61.0673 48.3901C57.5729 48.3918 54.1385 47.4813 51.1041 45.7484C48.0696 44.0156 45.5401 41.5205 43.7658 38.5101L43.6407 38.2995L43.4641 37.9842L43.3744 37.8238L40.7352 32.7629L34.2527 21.5361C31.498 16.6166 26.3868 13.4433 20.9127 13.2571C20.7279 13.2571 20.5404 13.2476 20.3556 13.2476C16.1194 13.2241 12.0445 14.8703 9.0134 17.8296C5.98226 20.7889 4.23887 24.8232 4.16077 29.0586C4.08267 33.2941 5.67616 37.3899 8.59615 40.4589C11.5161 43.528 15.5275 45.3233 19.7617 45.456C19.9587 45.4641 20.1585 45.4669 20.3556 45.4669C23.7002 45.4659 26.9617 44.4246 29.6882 42.4873C32.4146 40.5501 34.471 37.8127 35.5723 34.6546C35.6036 34.5663 35.6403 34.4712 35.6892 34.3556C35.8604 33.9479 36.1662 32.93 36.3483 32.3171C36.4122 32.1011 36.4679 31.9162 36.4842 31.8632C36.5005 31.8102 36.5128 31.7803 36.5046 31.0478C37.0876 32.0304 38.0878 33.9017 38.7877 35.2607C38.7986 36.5219 38.9141 50.9939 38.9141 57.2032V57.7251H38.2074C36.4937 57.7251 35.7286 57.7251 35.3916 57.7251C35.3916 54.3819 35.3807 46.6315 35.3726 46.5323C35.3644 46.4331 35.359 46.3217 35.3522 46.2143C35.3046 45.4315 35.238 44.3606 34.3139 44.3606C34.2262 44.3612 34.1387 44.3708 34.053 44.3892C33.7908 44.4493 33.5462 44.5694 33.3381 44.7398C29.5914 47.6861 24.7057 49.4433 20.2699 49.4433C20.134 49.4433 19.9981 49.4433 19.8731 49.4433C14.597 49.3063 9.58682 47.0977 5.92647 43.2953C2.26612 39.4929 0.249843 34.4023 0.313783 29.1248C0.377723 23.8472 2.51674 18.807 6.26814 15.0944C10.0195 11.3817 15.0817 9.2952 20.3596 9.28608C24.334 9.26379 28.2292 10.3969 31.5714 12.5477C34.7798 14.6204 37.2948 17.6054 38.7932 21.1189C39.3626 22.4589 39.9578 23.1438 40.5599 23.1574C41.4922 23.1384 42.1418 21.4233 42.2627 21.0795C44.9997 13.2856 52.3805 8.24916 61.0659 8.24916C63.8931 8.25179 66.6881 8.85044 69.2683 10.006C71.8486 11.1617 74.1563 12.8483 76.0408 14.9558C76.1531 15.0831 76.3015 15.1731 76.4662 15.2139C76.631 15.2547 76.8042 15.2444 76.963 15.1844C77.1217 15.1243 77.2584 15.0174 77.3549 14.8778C77.4514 14.7381 77.503 14.5724 77.5031 14.4027V1.29377C77.5038 1.02272 77.6119 0.762984 77.8037 0.571444C77.9955 0.379904 78.2553 0.27216 78.5264 0.271802H81.1547V25.9815Z" fill="url(#paint26_radial_186_51974)"/>
<path d="M61.066 12.207C60.8906 12.207 60.7153 12.207 60.5387 12.2152C56.3117 12.3497 52.3071 14.1411 49.3896 17.2027C46.4721 20.2643 44.8756 24.3505 44.9448 28.579C45.014 32.8076 46.7434 36.8393 49.7596 39.8037C52.7758 42.7682 56.8368 44.4276 61.066 44.4236C61.2413 44.4236 61.4166 44.4236 61.5932 44.4155C65.8202 44.281 69.8248 42.4895 72.7423 39.4279C75.6599 36.3663 77.2564 32.2802 77.1871 28.0516C77.1179 23.8231 75.3885 19.7914 72.3723 16.8269C69.3561 13.8625 65.2951 12.2031 61.066 12.207ZM76.8943 28.8331C76.6293 37.123 69.8764 43.8786 61.5837 44.1423C59.418 44.2132 57.2607 43.8389 55.2455 43.0425C53.2302 42.2461 51.3998 41.0446 49.8675 39.5124C48.3353 37.9801 47.1338 36.1497 46.3374 34.1345C45.5411 32.1192 45.1667 29.9619 45.2376 27.7962C45.5026 19.5063 52.2555 12.752 60.5482 12.487C62.7139 12.4161 64.8712 12.7904 66.8865 13.5868C68.9017 14.3832 70.7321 15.5847 72.2644 17.1169C73.7966 18.6492 74.9981 20.4795 75.7945 22.4948C76.5909 24.5101 76.9652 26.6673 76.8943 28.8331Z" fill="url(#paint27_radial_186_51974)"/>
<path d="M78.5265 7.13828e-07C78.3565 -0.000177873 78.1881 0.0331548 78.031 0.098093C77.8738 0.163031 77.7311 0.258301 77.6108 0.378457C77.4905 0.498613 77.3951 0.641297 77.33 0.798354C77.2649 0.95541 77.2314 1.12376 77.2314 1.29377V14.3864C77.2308 14.5005 77.1957 14.6118 77.1306 14.7056C77.0655 14.7993 76.9735 14.8711 76.8668 14.9114C76.76 14.9517 76.6435 14.9588 76.5327 14.9315C76.4219 14.9043 76.3219 14.844 76.2461 14.7588C74.3396 12.6186 72.0013 10.9066 69.3853 9.73537C66.7693 8.56416 63.9349 7.96038 61.0687 7.96377C52.1795 7.96377 44.7375 13.2054 42.0087 20.9762C41.7953 21.5837 41.2123 22.8571 40.5681 22.8707C39.9076 22.8571 39.3042 21.6095 39.046 21.0007C35.9855 13.8129 28.8046 9.00477 20.3624 9.00477C19.9371 9.00477 19.5158 9.01972 19.0972 9.04418C19.032 9.14203 18.9613 9.23716 18.9029 9.32821C19.3858 9.29469 19.8723 9.27747 20.3624 9.27657C24.3368 9.25428 28.232 10.3874 31.5742 12.5382C34.7826 14.6109 37.2976 17.5959 38.796 21.1094C39.3654 22.4494 39.9606 23.1343 40.5627 23.1479C41.495 23.1289 42.1446 21.4138 42.2655 21.07C45.0025 13.2761 52.3833 8.23965 61.0687 8.23965C63.8959 8.24228 66.6909 8.84092 69.2711 9.99653C71.8514 11.1521 74.1591 12.8388 76.0436 14.9463C76.1559 15.0736 76.3043 15.1636 76.4691 15.2044C76.6338 15.2452 76.807 15.2349 76.9658 15.1749C77.1245 15.1148 77.2612 15.0079 77.3577 14.8682C77.4542 14.7286 77.5059 14.5629 77.5059 14.3932V1.29377C77.5066 1.02318 77.6143 0.763863 77.8055 0.5724C77.9967 0.380937 78.2559 0.272877 78.5265 0.271802H81.1548V25.9815C81.1548 26.3728 81.1548 26.7588 81.1548 27.1448C81.1548 27.456 81.1548 27.7672 81.1548 28.0811C81.1553 33.3373 79.1283 38.3912 75.4959 42.1903C71.8963 45.9989 66.9334 48.225 61.6952 48.3806C61.4859 48.3806 61.2753 48.3901 61.0673 48.3901C57.5729 48.3918 54.1386 47.4813 51.1041 45.7484C48.0697 44.0156 45.5401 41.5205 43.7659 38.5101L43.6408 38.2995L43.4642 37.9842L43.3745 37.8238L40.7353 32.7629L34.2528 21.5361C31.4981 16.6166 26.3869 13.4433 20.9128 13.2571C20.728 13.2571 20.5405 13.2476 20.3556 13.2476C17.0323 13.2384 13.7888 14.2655 11.0763 16.1857C10.6605 16.5418 10.2474 16.8652 9.83965 17.1561C9.51078 17.4415 9.19005 17.7391 8.88835 18.053C6.69639 20.2792 5.19908 23.0947 4.5788 26.1567C3.95853 29.2186 4.24204 32.3949 5.39483 35.2986C6.54761 38.2023 8.51991 40.7081 11.0715 42.5109C13.6231 44.3136 16.6438 45.3354 19.7658 45.4519C19.9629 45.4601 20.1627 45.4628 20.3597 45.4628C23.7032 45.4613 26.9634 44.4202 29.689 42.4837C32.4146 40.5473 34.4706 37.8113 35.5724 34.6546C35.6037 34.5663 35.6404 34.4712 35.6893 34.3556C35.8605 33.9479 36.1663 32.93 36.3484 32.3171C36.4123 32.1011 36.468 31.9162 36.4843 31.8632C36.5006 31.8102 36.5128 31.7803 36.5047 31.0478C37.0877 32.0304 38.0879 33.9017 38.7878 35.2607C38.7987 36.5219 38.9142 50.9939 38.9142 57.2032V57.7251H38.2075C36.4938 57.7251 35.7287 57.7251 35.3917 57.7251C35.3917 54.3819 35.3808 46.6315 35.3726 46.5323C35.3645 46.4331 35.359 46.3217 35.3523 46.2143C35.3047 45.4315 35.2381 44.3606 34.314 44.3606C34.2263 44.3612 34.1388 44.3708 34.053 44.3892C33.7909 44.4493 33.5463 44.5694 33.3382 44.7398C29.5914 47.6861 24.7058 49.4433 20.27 49.4433C20.1341 49.4433 19.9982 49.4433 19.8732 49.4433C16.4519 49.3579 13.1091 48.4001 10.1616 46.6607C7.21423 44.9214 4.75985 42.4581 3.03118 39.5044C1.30252 36.5507 0.356843 33.2044 0.283804 29.7828C0.210764 26.3612 1.01278 22.9777 2.61383 19.9529C2.41541 19.9638 2.30805 19.9624 2.30805 19.9624C0.715223 23.0082 -0.0769827 26.409 0.00589481 29.8451C0.265465 40.6424 9.07046 49.4474 19.8678 49.7029C24.8009 49.8198 29.9067 47.7758 33.5067 44.9464C33.6816 44.8015 33.8877 44.6992 34.1088 44.6474C35.0872 44.4435 35.0302 45.6449 35.1022 46.55C35.109 46.6288 35.1199 54.2759 35.1199 57.9901C35.1199 57.9969 39.1738 57.9901 39.1738 57.9901C39.1777 57.9901 39.1815 57.9885 39.1843 57.9857C39.1871 57.9829 39.1887 57.9791 39.1887 57.9751V57.1964C39.1887 50.7466 39.0623 35.1874 39.0623 35.1874C39.0623 35.1874 36.5101 30.2501 36.222 30.1726C36.222 30.1726 36.2519 31.7056 36.2302 31.7708C36.1581 31.9774 35.6675 33.6992 35.4392 34.2415C35.3944 34.3461 35.3523 34.4508 35.3156 34.5581C34.2017 37.7577 32.0913 40.5159 29.2943 42.4277C26.4973 44.3395 23.161 45.3042 19.7753 45.1801C11.4052 44.8784 4.65369 37.9774 4.52459 29.6018C4.49196 27.5017 4.87745 25.416 5.6586 23.4662C6.43975 21.5165 7.60097 19.7416 9.07464 18.2449C10.5483 16.7482 12.305 15.5596 14.2424 14.7483C16.1798 13.9371 18.2593 13.5193 20.3597 13.5194C20.5432 13.5194 20.7253 13.5194 20.9033 13.5289C26.3883 13.7151 31.3364 16.8843 34.0177 21.672L40.4947 32.8879L43.1366 37.9529C43.1842 38.0413 43.2345 38.1269 43.2834 38.2152L43.528 38.6515C45.3816 41.7961 48.0473 44.3839 51.2455 46.1435C54.4436 47.9032 58.0563 48.7698 61.7047 48.6524C72.7235 48.3153 81.4021 39.1013 81.4212 28.077C81.4212 27.369 81.4212 26.6827 81.4212 25.976V7.13828e-07H78.5265Z" fill="url(#paint28_radial_186_51974)"/>
<path d="M61.066 44.4217C61.2413 44.4217 61.4166 44.4217 61.5932 44.4135C65.8202 44.279 69.8248 42.4876 72.7423 39.426C75.6599 36.3644 77.2564 32.2782 77.1871 28.0497C77.1179 23.8211 75.3885 19.7894 72.3723 16.825C69.3561 13.8605 65.2951 12.2011 61.066 12.2051C60.8906 12.2051 60.7153 12.2051 60.5387 12.2132C56.3117 12.3477 52.3071 14.1391 49.3896 17.2007C46.4721 20.2623 44.8756 24.3485 44.9448 28.5771C45.014 32.8056 46.7434 36.8373 49.7596 39.8018C52.7758 42.7662 56.8368 44.4256 61.066 44.4217ZM45.2376 27.7956C45.5026 19.5057 52.2555 12.7514 60.5482 12.4864C62.7139 12.4155 64.8712 12.7898 66.8865 13.5862C68.9017 14.3826 70.7321 15.5841 72.2644 17.1163C73.7966 18.6486 74.9981 20.479 75.7945 22.4942C76.5909 24.5095 76.9652 26.6668 76.8943 28.8325C76.6293 37.1224 69.8764 43.878 61.5837 44.1417C59.418 44.2126 57.2607 43.8383 55.2455 43.0419C53.2302 42.2455 51.3998 41.044 49.8675 39.5118C48.3353 37.9795 47.1338 36.1491 46.3374 34.1339C45.5411 32.1186 45.1667 29.9613 45.2376 27.7956Z" fill="url(#paint29_radial_186_51974)"/>
<path opacity="0.69" d="M2.31616 19.8064C3.28921 17.3411 10.7026 14.7346 10.7026 14.7346C10.7026 14.7346 15.4985 10.4714 18.6025 9.18848C13.7066 9.52787 9.10867 11.6642 5.69193 15.1871C4.35303 16.5588 3.21636 18.1141 2.31616 19.8064Z" fill="url(#paint30_linear_186_51974)"/>
<path d="M2.60973 19.9438C3.51172 18.2506 4.65072 16.6947 5.99229 15.3232C9.40972 11.8012 14.0072 9.66509 18.9028 9.32456C18.9667 9.23351 19.0319 9.13838 19.0972 9.04053C15.5947 9.25757 12.2079 10.3765 9.26549 12.2886C6.32304 14.2007 3.92493 16.841 2.30396 19.9533C2.30396 19.9533 2.41132 19.9547 2.60973 19.9438Z" fill="url(#paint31_radial_186_51974)"/>
<path d="M2.60973 19.9438C3.51172 18.2506 4.65072 16.6947 5.99229 15.3232C9.40972 11.8012 14.0072 9.66509 18.9028 9.32456C18.9667 9.23351 19.0319 9.13838 19.0972 9.04053C15.5947 9.25757 12.2079 10.3765 9.26549 12.2886C6.32304 14.2007 3.92493 16.841 2.30396 19.9533C2.30396 19.9533 2.41132 19.9547 2.60973 19.9438Z" fill="url(#paint32_radial_186_51974)"/>
<path d="M78.5266 7.13828e-07C78.3566 -0.000177873 78.1882 0.0331548 78.0311 0.098093C77.8739 0.163031 77.7311 0.258301 77.6109 0.378457C77.4906 0.498613 77.3952 0.641298 77.3301 0.798354C77.265 0.95541 77.2314 1.12376 77.2314 1.29377V3.39751C77.2559 3.14746 78.2425 2.02356 79.1857 1.94881C80.2253 1.86591 81.1263 3.59049 81.2622 3.48993L81.4267 7.13828e-07H78.5266Z" fill="url(#paint33_radial_186_51974)" fill-opacity="0.43"/>
<defs>
<linearGradient id="paint0_linear_186_51974" x1="36.2177" y1="32.2177" x2="39.126" y2="32.889" gradientUnits="userSpaceOnUse">
<stop stop-color="#B8B8B8"/>
<stop offset="1" stop-color="#434344"/>
</linearGradient>
<linearGradient id="paint1_linear_186_51974" x1="36.218" y1="32.2172" x2="39.1263" y2="32.8885" gradientUnits="userSpaceOnUse">
<stop stop-color="#B8B8B8"/>
<stop offset="1" stop-color="#434344"/>
</linearGradient>
<linearGradient id="paint2_linear_186_51974" x1="38.6342" y1="57.5189" x2="38.8815" y2="53.6539" gradientUnits="userSpaceOnUse">
<stop stop-color="#B8B8B8"/>
<stop offset="0.14" stop-color="#A7A7A7"/>
<stop offset="1" stop-color="#434444"/>
</linearGradient>
<radialGradient id="paint3_radial_186_51974" cx="0" cy="0" r="1" gradientUnits="userSpaceOnUse" gradientTransform="translate(9.47528 21.5516) scale(14.6555)">
<stop offset="0.27" stop-color="#434444"/>
<stop offset="0.5" stop-color="#393A3A"/>
<stop offset="1" stop-color="#282828"/>
</radialGradient>
<radialGradient id="paint4_radial_186_51974" cx="0" cy="0" r="1" gradientUnits="userSpaceOnUse" gradientTransform="translate(74.0689 35.496) scale(18.8942)">
<stop offset="0.27" stop-color="#434444"/>
<stop offset="0.55" stop-color="#3D3D3D"/>
<stop offset="0.95" stop-color="#2B2B2B"/>
<stop offset="1" stop-color="#282828"/>
</radialGradient>
<linearGradient id="paint5_linear_186_51974" x1="76.4391" y1="12.7177" x2="76.2814" y2="2.08212" gradientUnits="userSpaceOnUse">
<stop stop-color="white"/>
<stop offset="0.05" stop-color="#E9E9E9"/>
<stop offset="0.17" stop-color="#BABABA"/>
<stop offset="0.3" stop-color="#929292"/>
<stop offset="0.43" stop-color="#717171"/>
<stop offset="0.56" stop-color="#575757"/>
<stop offset="0.69" stop-color="#454545"/>
<stop offset="0.84" stop-color="#3A3A3A"/>
<stop offset="1" stop-color="#373737"/>
</linearGradient>
<radialGradient id="paint6_radial_186_51974" cx="0" cy="0" r="1" gradientUnits="userSpaceOnUse" gradientTransform="translate(22.7134 32.0789) scale(17.6888)">
<stop stop-color="#B8B8B8"/>
<stop offset="0.45" stop-color="#A2A2A2" stop-opacity="0.54"/>
<stop offset="1" stop-color="#878787" stop-opacity="0"/>
</radialGradient>
<radialGradient id="paint7_radial_186_51974" cx="0" cy="0" r="1" gradientUnits="userSpaceOnUse" gradientTransform="translate(40.7162 28.9959) scale(35.3423)">
<stop offset="0.65" stop-color="#B8B8B8"/>
<stop offset="1" stop-color="#878787"/>
</radialGradient>
<radialGradient id="paint8_radial_186_51974" cx="0" cy="0" r="1" gradientUnits="userSpaceOnUse" gradientTransform="translate(1333.96 794.955) scale(1105.7 938.072)">
<stop offset="0.65" stop-color="#B8B8B8"/>
<stop offset="1" stop-color="#878787"/>
</radialGradient>
<radialGradient id="paint9_radial_186_51974" cx="0" cy="0" r="1" gradientUnits="userSpaceOnUse" gradientTransform="translate(77.5495 -0.335673) scale(3.8718)">
<stop offset="0.24" stop-color="#FDFEFF"/>
<stop offset="0.35" stop-color="#FDFEFF" stop-opacity="0.83"/>
<stop offset="0.65" stop-color="#FEFFFF" stop-opacity="0.39"/>
<stop offset="0.86" stop-color="white" stop-opacity="0.11"/>
<stop offset="0.96" stop-color="white" stop-opacity="0"/>
</radialGradient>
<radialGradient id="paint10_radial_186_51974" cx="0" cy="0" r="1" gradientUnits="userSpaceOnUse" gradientTransform="translate(12.5182 11.3314) scale(13.9882)">
<stop offset="0.19" stop-color="#FDFEFF"/>
<stop offset="0.29" stop-color="#FDFEFF" stop-opacity="0.77"/>
<stop offset="0.45" stop-color="#FEFFFF" stop-opacity="0.45"/>
<stop offset="0.58" stop-color="white" stop-opacity="0.2"/>
<stop offset="0.68" stop-color="white" stop-opacity="0.06"/>
<stop offset="0.73" stop-color="white" stop-opacity="0"/>
</radialGradient>
<radialGradient id="paint11_radial_186_51974" cx="0" cy="0" r="1" gradientUnits="userSpaceOnUse" gradientTransform="translate(13.2936 11.7873) rotate(58.63) scale(13.9882 1.39882)">
<stop stop-color="#FDFEFF"/>
<stop offset="0.59" stop-color="#FEFFFF" stop-opacity="0.4"/>
<stop offset="1" stop-color="white" stop-opacity="0"/>
</radialGradient>
<radialGradient id="paint12_radial_186_51974" cx="0" cy="0" r="1" gradientUnits="userSpaceOnUse" gradientTransform="translate(25601.2 -3184.98) scale(40.7105 28.9966)">
<stop offset="0.19" stop-color="#FDFEFF"/>
<stop offset="0.29" stop-color="#FDFEFF" stop-opacity="0.77"/>
<stop offset="0.45" stop-color="#FEFFFF" stop-opacity="0.45"/>
<stop offset="0.58" stop-color="white" stop-opacity="0.2"/>
<stop offset="0.68" stop-color="white" stop-opacity="0.06"/>
<stop offset="0.73" stop-color="white" stop-opacity="0"/>
</radialGradient>
<radialGradient id="paint13_radial_186_51974" cx="0" cy="0" r="1" gradientUnits="userSpaceOnUse" gradientTransform="translate(10184.3 -182.43) scale(16.1233 1.61083)">
<stop stop-color="#FDFEFF"/>
<stop offset="0.59" stop-color="#FEFFFF" stop-opacity="0.4"/>
<stop offset="1" stop-color="white" stop-opacity="0"/>
</radialGradient>
<radialGradient id="paint14_radial_186_51974" cx="0" cy="0" r="1" gradientUnits="userSpaceOnUse" gradientTransform="translate(32445.5 3292.27) scale(5883.49 4190.58)">
<stop offset="0.19" stop-color="#FDFEFF"/>
<stop offset="0.29" stop-color="#FDFEFF" stop-opacity="0.77"/>
<stop offset="0.45" stop-color="#FEFFFF" stop-opacity="0.45"/>
<stop offset="0.58" stop-color="white" stop-opacity="0.2"/>
<stop offset="0.68" stop-color="white" stop-opacity="0.06"/>
<stop offset="0.73" stop-color="white" stop-opacity="0"/>
</radialGradient>
<radialGradient id="paint15_radial_186_51974" cx="0" cy="0" r="1" gradientUnits="userSpaceOnUse" gradientTransform="translate(8914.62 9381.47) rotate(45.8069) scale(2339.91 230.434)">
<stop stop-color="#FDFEFF"/>
<stop offset="0.59" stop-color="#FEFFFF" stop-opacity="0.4"/>
<stop offset="1" stop-color="white" stop-opacity="0"/>
</radialGradient>
<radialGradient id="paint16_radial_186_51974" cx="0" cy="0" r="1" gradientUnits="userSpaceOnUse" gradientTransform="translate(2086.01 18809.5) scale(5562.69 3962.09)">
<stop offset="0.19" stop-color="#FDFEFF"/>
<stop offset="0.29" stop-color="#FDFEFF" stop-opacity="0.77"/>
<stop offset="0.45" stop-color="#FEFFFF" stop-opacity="0.45"/>
<stop offset="0.58" stop-color="white" stop-opacity="0.2"/>
<stop offset="0.68" stop-color="white" stop-opacity="0.06"/>
<stop offset="0.73" stop-color="white" stop-opacity="0"/>
</radialGradient>
<radialGradient id="paint17_radial_186_51974" cx="0" cy="0" r="1" gradientUnits="userSpaceOnUse" gradientTransform="translate(1348.68 165.911) rotate(-44.5937) scale(2196.58 217.886)">
<stop stop-color="#FDFEFF"/>
<stop offset="0.59" stop-color="#FEFFFF" stop-opacity="0.4"/>
<stop offset="1" stop-color="white" stop-opacity="0"/>
</radialGradient>
<radialGradient id="paint18_radial_186_51974" cx="0" cy="0" r="1" gradientUnits="userSpaceOnUse" gradientTransform="translate(20705.4 15538.1) scale(5049.73 3596.73)">
<stop offset="0.19" stop-color="#FDFEFF"/>
<stop offset="0.29" stop-color="#FDFEFF" stop-opacity="0.77"/>
<stop offset="0.45" stop-color="#FEFFFF" stop-opacity="0.45"/>
<stop offset="0.58" stop-color="white" stop-opacity="0.2"/>
<stop offset="0.68" stop-color="white" stop-opacity="0.06"/>
<stop offset="0.73" stop-color="white" stop-opacity="0"/>
</radialGradient>
<radialGradient id="paint19_radial_186_51974" cx="0" cy="0" r="1" gradientUnits="userSpaceOnUse" gradientTransform="translate(5731.81 -5933.47) rotate(-52.3264) scale(1996.13 199.788)">
<stop stop-color="#FDFEFF"/>
<stop offset="0.59" stop-color="#FEFFFF" stop-opacity="0.4"/>
<stop offset="1" stop-color="white" stop-opacity="0"/>
</radialGradient>
<radialGradient id="paint20_radial_186_51974" cx="0" cy="0" r="1" gradientUnits="userSpaceOnUse" gradientTransform="translate(21688.1 13073.4) scale(5136.04 3658.21)">
<stop offset="0.19" stop-color="#FDFEFF"/>
<stop offset="0.29" stop-color="#FDFEFF" stop-opacity="0.77"/>
<stop offset="0.45" stop-color="#FEFFFF" stop-opacity="0.45"/>
<stop offset="0.58" stop-color="white" stop-opacity="0.2"/>
<stop offset="0.68" stop-color="white" stop-opacity="0.06"/>
<stop offset="0.73" stop-color="white" stop-opacity="0"/>
</radialGradient>
<radialGradient id="paint21_radial_186_51974" cx="0" cy="0" r="1" gradientUnits="userSpaceOnUse" gradientTransform="translate(1037.56 8601.08) rotate(78.52) scale(2034.12 203.222)">
<stop stop-color="#FDFEFF"/>
<stop offset="0.59" stop-color="#FEFFFF" stop-opacity="0.4"/>
<stop offset="1" stop-color="white" stop-opacity="0"/>
</radialGradient>
<radialGradient id="paint22_radial_186_51974" cx="0" cy="0" r="1" gradientUnits="userSpaceOnUse" gradientTransform="translate(43679.1 17021) scale(10930.8 7785.57)">
<stop offset="0.19" stop-color="#FDFEFF"/>
<stop offset="0.29" stop-color="#FDFEFF" stop-opacity="0.77"/>
<stop offset="0.45" stop-color="#FEFFFF" stop-opacity="0.45"/>
<stop offset="0.58" stop-color="white" stop-opacity="0.2"/>
<stop offset="0.68" stop-color="white" stop-opacity="0.06"/>
<stop offset="0.73" stop-color="white" stop-opacity="0"/>
</radialGradient>
<radialGradient id="paint23_radial_186_51974" cx="0" cy="0" r="1" gradientUnits="userSpaceOnUse" gradientTransform="translate(-10294.4 -13805.6) rotate(-129.95) scale(4329.11 432.508)">
<stop stop-color="#FDFEFF"/>
<stop offset="0.59" stop-color="#FEFFFF" stop-opacity="0.4"/>
<stop offset="1" stop-color="white" stop-opacity="0"/>
</radialGradient>
<radialGradient id="paint24_radial_186_51974" cx="0" cy="0" r="1" gradientUnits="userSpaceOnUse" gradientTransform="translate(30035.4 6537.56) scale(24921.4 17750.5)">
<stop offset="0.19" stop-color="#FDFEFF"/>
<stop offset="0.29" stop-color="#FDFEFF" stop-opacity="0.77"/>
<stop offset="0.45" stop-color="#FEFFFF" stop-opacity="0.45"/>
<stop offset="0.58" stop-color="white" stop-opacity="0.2"/>
<stop offset="0.68" stop-color="white" stop-opacity="0.06"/>
<stop offset="0.73" stop-color="white" stop-opacity="0"/>
</radialGradient>
<radialGradient id="paint25_radial_186_51974" cx="0" cy="0" r="1" gradientUnits="userSpaceOnUse" gradientTransform="translate(7181.33 9536.69) rotate(51.42) scale(9870.06 986.085)">
<stop stop-color="#FDFEFF"/>
<stop offset="0.59" stop-color="#FEFFFF" stop-opacity="0.4"/>
<stop offset="1" stop-color="white" stop-opacity="0"/>
</radialGradient>
<radialGradient id="paint26_radial_186_51974" cx="0" cy="0" r="1" gradientUnits="userSpaceOnUse" gradientTransform="translate(45840.1 5920.52) scale(3643.59 2595.19)">
<stop offset="0.19" stop-color="#FDFEFF"/>
<stop offset="0.29" stop-color="#FDFEFF" stop-opacity="0.77"/>
<stop offset="0.45" stop-color="#FEFFFF" stop-opacity="0.45"/>
<stop offset="0.58" stop-color="white" stop-opacity="0.2"/>
<stop offset="0.68" stop-color="white" stop-opacity="0.06"/>
<stop offset="0.73" stop-color="white" stop-opacity="0"/>
</radialGradient>
<radialGradient id="paint27_radial_186_51974" cx="0" cy="0" r="1" gradientUnits="userSpaceOnUse" gradientTransform="translate(3420.46 17829) rotate(78.33) scale(1443.04 144.169)">
<stop stop-color="#FDFEFF"/>
<stop offset="0.59" stop-color="#FEFFFF" stop-opacity="0.4"/>
<stop offset="1" stop-color="white" stop-opacity="0"/>
</radialGradient>
<radialGradient id="paint28_radial_186_51974" cx="0" cy="0" r="1" gradientUnits="userSpaceOnUse" gradientTransform="translate(23060.1 24372.2) scale(2223.61 1583.79)">
<stop offset="0.19" stop-color="#FDFEFF"/>
<stop offset="0.29" stop-color="#FDFEFF" stop-opacity="0.77"/>
<stop offset="0.45" stop-color="#FEFFFF" stop-opacity="0.45"/>
<stop offset="0.58" stop-color="white" stop-opacity="0.2"/>
<stop offset="0.68" stop-color="white" stop-opacity="0.06"/>
<stop offset="0.73" stop-color="white" stop-opacity="0"/>
</radialGradient>
<radialGradient id="paint29_radial_186_51974" cx="0" cy="0" r="1" gradientUnits="userSpaceOnUse" gradientTransform="translate(5407.33 7575.38) rotate(46.07) scale(880.656 87.9835)">
<stop stop-color="#FDFEFF"/>
<stop offset="0.59" stop-color="#FEFFFF" stop-opacity="0.4"/>
<stop offset="1" stop-color="white" stop-opacity="0"/>
</radialGradient>
<linearGradient id="paint30_linear_186_51974" x1="9.36804" y1="12.6702" x2="10.9771" y2="15.3692" gradientUnits="userSpaceOnUse">
<stop offset="0.16" stop-color="#D6D7D8"/>
<stop offset="0.23" stop-color="#E0E1E2" stop-opacity="0.75"/>
<stop offset="0.31" stop-color="#EBECEC" stop-opacity="0.48"/>
<stop offset="0.39" stop-color="#F4F4F4" stop-opacity="0.27"/>
<stop offset="0.46" stop-color="#FAFAFA" stop-opacity="0.12"/>
<stop offset="0.51" stop-color="#FEFEFE" stop-opacity="0.03"/>
<stop offset="0.55" stop-color="white" stop-opacity="0"/>
</linearGradient>
<radialGradient id="paint31_radial_186_51974" cx="0" cy="0" r="1" gradientUnits="userSpaceOnUse" gradientTransform="translate(4758.48 4595.28) scale(458.623 298.03)">
<stop offset="0.19" stop-color="#FDFEFF"/>
<stop offset="0.29" stop-color="#FDFEFF" stop-opacity="0.77"/>
<stop offset="0.45" stop-color="#FEFFFF" stop-opacity="0.45"/>
<stop offset="0.58" stop-color="white" stop-opacity="0.2"/>
<stop offset="0.68" stop-color="white" stop-opacity="0.06"/>
<stop offset="0.73" stop-color="white" stop-opacity="0"/>
</radialGradient>
<radialGradient id="paint32_radial_186_51974" cx="0" cy="0" r="1" gradientUnits="userSpaceOnUse" gradientTransform="translate(7.97101 11.5044) scale(9.81745)">
<stop offset="0.24" stop-color="#D6D7D8"/>
<stop offset="0.26" stop-color="#D7D8D9" stop-opacity="0.98"/>
<stop offset="0.61" stop-color="#ECEDED" stop-opacity="0.46"/>
<stop offset="0.85" stop-color="#FAFAFA" stop-opacity="0.13"/>
<stop offset="0.96" stop-color="white" stop-opacity="0"/>
</radialGradient>
<radialGradient id="paint33_radial_186_51974" cx="0" cy="0" r="1" gradientUnits="userSpaceOnUse" gradientTransform="translate(2478.05 1.36272) scale(62.1316 51.7485)">
<stop offset="0.24" stop-color="#FDFEFF"/>
<stop offset="0.35" stop-color="#FDFEFF" stop-opacity="0.83"/>
<stop offset="0.65" stop-color="#FEFFFF" stop-opacity="0.39"/>
<stop offset="0.86" stop-color="white" stop-opacity="0.11"/>
<stop offset="0.96" stop-color="white" stop-opacity="0"/>
</radialGradient>
</defs>
</svg>
