<svg viewBox="0 0 20 18" fill="none" xmlns="http://www.w3.org/2000/svg">
  <path d="M18.1095 0.495605L11.0779 5.69853L12.3855 2.63228L18.1095 0.495605Z" fill="#E17726" stroke="#E17726" stroke-width="0.131549" stroke-linecap="round" stroke-linejoin="round" />
  <path d="M1.89038 0.495605L8.85944 5.74709L7.61448 2.63227L1.89038 0.495605Z" fill="#E27625" stroke="#E27625" stroke-width="0.131549" stroke-linecap="round" stroke-linejoin="round" />
  <path d="M15.578 12.5593L13.707 15.4175L17.7132 16.5205L18.8608 12.6218L15.578 12.5593Z" fill="#E27625" stroke="#E27625" stroke-width="0.131549" stroke-linecap="round" stroke-linejoin="round" />
  <path d="M1.146 12.6218L2.28663 16.5205L6.28585 15.4175L4.42186 12.5593L1.146 12.6218Z" fill="#E27625" stroke="#E27625" stroke-width="0.131549" stroke-linecap="round" stroke-linejoin="round" />
  <path d="M6.07032 7.73093L4.95752 9.40976L8.92194 9.59013L8.78981 5.32373L6.07032 7.73093Z" fill="#E27625" stroke="#E27625" stroke-width="0.131549" stroke-linecap="round" stroke-linejoin="round" />
  <path d="M13.9294 7.73092L11.1683 5.27515L11.0779 9.59011L15.0423 9.40975L13.9294 7.73092Z" fill="#E27625" stroke="#E27625" stroke-width="0.131549" stroke-linecap="round" stroke-linejoin="round" />
  <path d="M6.28589 15.4171L8.68538 14.2586L6.61975 12.6492L6.28589 15.4171Z" fill="#E27625" stroke="#E27625" stroke-width="0.131549" stroke-linecap="round" stroke-linejoin="round" />
  <path d="M11.3147 14.2586L13.7072 15.4171L13.3803 12.6492L11.3147 14.2586Z" fill="#E27625" stroke="#E27625" stroke-width="0.131549" stroke-linecap="round" stroke-linejoin="round" />
  <path d="M13.7072 15.4178L11.3147 14.2593L11.5094 15.8132L11.4885 16.4722L13.7072 15.4178Z" fill="#D5BFB2" stroke="#D5BFB2" stroke-width="0.131549" stroke-linecap="round" stroke-linejoin="round" />
  <path d="M6.28589 15.4178L8.51155 16.4722L8.49763 15.8132L8.68538 14.2593L6.28589 15.4178Z" fill="#D5BFB2" stroke="#D5BFB2" stroke-width="0.131549" stroke-linecap="round" stroke-linejoin="round" />
  <path d="M8.55339 11.6224L6.56421 11.0397L7.96914 10.3945L8.55339 11.6224Z" fill="#233447" stroke="#233447" stroke-width="0.131549" stroke-linecap="round" stroke-linejoin="round" />
  <path d="M11.4465 11.6224L12.0308 10.3945L13.4427 11.0397L11.4465 11.6224Z" fill="#233447" stroke="#233447" stroke-width="0.131549" stroke-linecap="round" stroke-linejoin="round" />
  <path d="M6.28608 15.4175L6.63386 12.5593L4.42212 12.6218L6.28608 15.4175Z" fill="#CC6228" stroke="#CC6228" stroke-width="0.131549" stroke-linecap="round" stroke-linejoin="round" />
  <path d="M13.3662 12.5593L13.707 15.4175L15.5779 12.6218L13.3662 12.5593Z" fill="#CC6228" stroke="#CC6228" stroke-width="0.131549" stroke-linecap="round" stroke-linejoin="round" />
  <path d="M15.0423 9.40967L11.0779 9.59003L11.4465 11.6227L12.0307 10.3948L13.4426 11.0399L15.0423 9.40967Z" fill="#CC6228" stroke="#CC6228" stroke-width="0.131549" stroke-linecap="round" stroke-linejoin="round" />
  <path d="M6.56415 11.0399L7.96908 10.3948L8.55334 11.6227L8.92194 9.59003L4.95752 9.40967L6.56415 11.0399Z" fill="#CC6228" stroke="#CC6228" stroke-width="0.131549" stroke-linecap="round" stroke-linejoin="round" />
  <path d="M4.95776 9.40967L6.62005 12.6494L6.56437 11.0399L4.95776 9.40967Z" fill="#E27525" stroke="#E27525" stroke-width="0.131549" stroke-linecap="round" stroke-linejoin="round" />
  <path d="M13.4427 11.0399L13.3801 12.6494L15.0424 9.40967L13.4427 11.0399Z" fill="#E27525" stroke="#E27525" stroke-width="0.131549" stroke-linecap="round" stroke-linejoin="round" />
  <path d="M8.92213 9.59009L8.55347 11.6227L9.01946 14.023L9.1238 10.8596L8.92213 9.59009Z" fill="#E27525" stroke="#E27525" stroke-width="0.131549" stroke-linecap="round" stroke-linejoin="round" />
  <path d="M11.0781 9.59009L10.8833 10.8527L10.9807 14.023L11.4467 11.6227L11.0781 9.59009Z" fill="#E27525" stroke="#E27525" stroke-width="0.131549" stroke-linecap="round" stroke-linejoin="round" />
  <path d="M11.4467 11.6225L10.9807 14.0228L11.3146 14.2587L13.3803 12.6492L13.4428 11.0398L11.4467 11.6225Z" fill="#F5841F" stroke="#F5841F" stroke-width="0.131549" stroke-linecap="round" stroke-linejoin="round" />
  <path d="M6.56421 11.0398L6.61989 12.6492L8.68552 14.2587L9.01938 14.0228L8.55339 11.6225L6.56421 11.0398Z" fill="#F5841F" stroke="#F5841F" stroke-width="0.131549" stroke-linecap="round" stroke-linejoin="round" />
  <path d="M11.4883 16.4717L11.5092 15.8127L11.3284 15.66H8.67152L8.49763 15.8127L8.51155 16.4717L6.28589 15.4172L7.06486 16.0555L8.64368 17.1446H11.3492L12.935 16.0555L13.707 15.4172L11.4883 16.4717Z" fill="#C0AC9D" stroke="#C0AC9D" stroke-width="0.131549" stroke-linecap="round" stroke-linejoin="round" />
  <path d="M11.3146 14.2588L10.9808 14.0229H9.01942L8.68561 14.2588L8.4978 15.8128L8.67169 15.6601H11.3285L11.5094 15.8128L11.3146 14.2588Z" fill="#161616" stroke="#161616" stroke-width="0.131549" stroke-linecap="round" stroke-linejoin="round" />
  <path d="M18.4089 6.03844L19.0001 3.16644L18.1098 0.495605L11.3147 5.52513L13.9298 7.73114L17.623 8.80644L18.4367 7.85604L18.082 7.59933L18.6454 7.08601L18.2142 6.75301L18.7775 6.32289L18.4089 6.03844Z" fill="#763E1A" stroke="#763E1A" stroke-width="0.131549" stroke-linecap="round" stroke-linejoin="round" />
  <path d="M1 3.16644L1.59814 6.03844L1.21561 6.32289L1.78593 6.75301L1.35471 7.08601L1.91808 7.59933L1.56336 7.85604L2.37712 8.80644L6.07032 7.73114L8.68541 5.52513L1.89026 0.495605L1 3.16644Z" fill="#763E1A" stroke="#763E1A" stroke-width="0.131549" stroke-linecap="round" stroke-linejoin="round" />
  <path d="M17.6228 8.8062L13.9296 7.73096L15.0424 9.40978L13.3801 12.6494L15.5779 12.6217H18.8608L17.6228 8.8062Z" fill="#F5841F" stroke="#F5841F" stroke-width="0.131549" stroke-linecap="round" stroke-linejoin="round" />
  <path d="M6.0702 7.73096L2.37705 8.8062L1.146 12.6217H4.42186L6.61966 12.6494L4.95741 9.40978L6.0702 7.73096Z" fill="#F5841F" stroke="#F5841F" stroke-width="0.131549" stroke-linecap="round" stroke-linejoin="round" />
  <path d="M11.0779 9.5899L11.3144 5.52464L12.3855 2.63184H7.61426L8.68533 5.52464L8.9218 9.5899L9.01223 10.8663L9.01919 14.0228H10.9805L10.9875 10.8663L11.0779 9.5899Z" fill="#F5841F" stroke="#F5841F" stroke-width="0.131549" stroke-linecap="round" stroke-linejoin="round" />
</svg>
  